<?xml version="1.0" standalone="no"?>
<!DOCTYPE svg PUBLIC "-//W3C//DTD SVG 20010904//EN"
 "http://www.w3.org/TR/2001/REC-SVG-20010904/DTD/svg10.dtd">
<svg version="1.0" xmlns="http://www.w3.org/2000/svg"
 width="747.000000pt" height="768.000000pt" viewBox="0 0 747.000000 768.000000"
 preserveAspectRatio="xMidYMid meet">
<metadata>
Created by potrace 1.15, written by Peter Selinger 2001-2017
</metadata>
<g transform="translate(0.000000,768.000000) scale(0.100000,-0.100000)"
fill="#000000" stroke="none">
<path d="M3795 7620 c-73 -6 -171 -41 -235 -84 -74 -51 -114 -66 -170 -66 -30
0 -70 -4 -88 -10 -19 -5 -102 -12 -185 -15 -169 -7 -280 -18 -377 -40 -36 -9
-79 -15 -95 -15 -17 0 -46 -5 -65 -11 -19 -6 -73 -15 -120 -19 -380 -37 -556
-60 -670 -88 -56 -14 -74 -24 -126 -74 -34 -33 -76 -85 -93 -117 -17 -32 -37
-64 -46 -71 -8 -6 -17 -28 -21 -49 -7 -39 -20 -74 -61 -161 l-26 -55 -3 -300
c-1 -165 -5 -331 -9 -370 -13 -139 -46 -361 -57 -388 -10 -26 -29 -114 -47
-223 -5 -28 -28 -100 -52 -160 -48 -124 -54 -130 -274 -324 -71 -63 -168 -153
-215 -200 -47 -47 -125 -122 -174 -166 -198 -177 -306 -401 -306 -636 -1 -141
-66 -354 -118 -385 -34 -20 -52 -92 -42 -170 5 -38 12 -75 15 -84 3 -9 33 -31
65 -49 63 -35 80 -62 80 -125 0 -40 -35 -143 -57 -167 -13 -14 -18 -44 -21
-126 -4 -106 -4 -109 24 -150 19 -27 45 -48 76 -62 26 -11 52 -29 58 -40 6
-11 10 -70 9 -132 -3 -220 -1 -252 20 -300 15 -36 28 -50 63 -67 24 -11 51
-21 59 -21 8 0 35 -8 61 -18 39 -15 52 -26 73 -65 29 -55 31 -78 10 -137 -8
-23 -19 -69 -25 -102 -8 -52 -7 -65 10 -98 11 -21 38 -52 62 -69 38 -28 49
-31 118 -31 43 0 91 -5 107 -11 44 -15 93 -94 93 -150 0 -24 5 -82 10 -128 8
-69 15 -91 37 -119 34 -41 128 -76 183 -67 106 18 129 17 164 -4 63 -39 126
-146 132 -223 4 -59 28 -106 59 -118 12 -5 26 -14 30 -20 10 -17 92 -50 122
-50 15 0 42 12 61 27 l36 27 50 -28 c97 -53 116 -69 116 -98 0 -38 35 -123 68
-164 46 -58 153 -85 247 -64 77 18 151 23 174 11 11 -6 45 -44 76 -85 63 -84
82 -94 192 -103 66 -5 76 -4 110 19 48 31 153 63 185 55 14 -4 63 -40 110 -82
47 -41 98 -79 113 -85 28 -11 118 -5 175 12 19 6 58 27 85 48 80 61 118 80
155 80 35 0 100 -32 100 -49 0 -5 24 -24 52 -42 49 -32 58 -34 133 -33 100 1
139 18 197 84 35 40 61 57 117 80 40 17 80 30 89 30 8 0 40 -14 71 -32 51 -29
84 -38 191 -54 55 -9 113 34 151 112 32 66 70 107 132 144 l38 22 103 -21
c147 -30 196 -28 256 11 49 32 100 110 100 152 0 20 58 114 84 136 16 13 50
11 141 -8 90 -18 171 20 226 107 26 40 29 52 24 94 -6 47 -5 50 36 89 62 59
98 78 149 78 68 0 110 16 153 57 52 51 63 75 78 172 22 144 80 195 215 192 90
-1 132 16 169 69 26 38 29 49 28 125 -1 107 7 119 81 121 70 2 97 20 136 87
37 64 38 100 4 165 -25 48 -25 53 -12 93 13 39 19 44 73 64 68 26 107 66 124
128 10 35 8 53 -9 112 -11 38 -20 91 -20 117 0 45 2 48 58 90 94 72 127 172
82 255 -11 21 -20 48 -20 60 0 12 -5 25 -11 29 -17 10 -6 95 18 140 14 27 30
42 53 50 37 12 43 26 60 119 7 44 6 54 -15 85 -41 61 -56 112 -52 174 3 47 9
63 31 82 49 46 44 107 -14 201 -17 27 -33 68 -36 93 -5 40 -3 50 21 78 25 30
27 38 21 87 -8 74 -34 128 -100 209 -86 108 -133 206 -166 346 -19 84 -44 131
-96 185 -30 32 -73 93 -96 138 -24 45 -63 102 -88 127 -69 70 -284 249 -410
343 -113 84 -200 153 -259 205 -36 31 -88 73 -116 92 -60 40 -305 258 -305
271 0 5 13 9 29 9 16 0 48 9 72 19 25 11 65 25 91 30 26 6 81 32 121 58 41 27
87 55 103 64 16 8 57 58 93 112 63 93 66 97 130 122 82 33 112 54 183 126 63
63 85 100 104 173 13 49 7 83 -30 168 -5 11 -1 18 13 23 54 17 79 107 46 165
-8 14 -14 34 -15 45 0 25 -37 95 -59 112 -52 41 -172 95 -276 126 l-120 36
-320 8 c-176 4 -374 6 -440 6 -66 -1 -174 -3 -240 -4 -66 0 -145 4 -175 9 -33
7 -198 10 -410 10 l-355 -2 -65 28 c-114 48 -230 66 -365 56z m1676 -140 c10
-6 19 -16 19 -23 0 -8 16 -21 35 -30 67 -32 97 -124 55 -162 -19 -17 -26 -18
-63 -7 -23 7 -73 19 -112 27 -38 8 -86 19 -105 25 -19 5 -49 10 -66 10 -17 0
-57 9 -89 20 -32 11 -79 20 -105 20 -26 0 -67 7 -91 16 -24 8 -73 17 -109 20
-36 3 -92 14 -125 24 -33 10 -75 22 -92 25 -63 13 -47 27 28 27 41 0 206 1
367 2 l293 3 31 -30 c17 -17 39 -50 49 -74 32 -75 52 -48 24 32 -24 65 -20 77
28 84 5 0 17 -4 28 -9z m316 -10 c23 0 33 -5 33 -15 0 -8 28 -44 63 -79 49
-49 67 -74 77 -112 17 -65 18 -66 41 -54 27 15 24 38 -16 100 -19 30 -35 57
-35 61 0 4 -23 24 -51 44 -28 20 -47 40 -43 45 12 11 184 15 269 6 39 -4 106
-21 151 -37 44 -16 89 -29 99 -29 21 0 105 -54 153 -99 25 -23 32 -38 32 -67
0 -27 7 -46 26 -65 35 -37 27 -80 -19 -100 -48 -21 -55 -54 -23 -120 32 -68
32 -83 4 -155 -30 -73 -104 -142 -205 -190 -72 -34 -78 -35 -122 -24 -25 6
-60 23 -78 36 -18 13 -67 40 -110 58 -43 18 -114 50 -157 71 -44 20 -98 44
-120 52 -23 7 -59 26 -81 41 -22 15 -62 38 -90 53 -27 14 -86 45 -130 69 -44
24 -114 61 -155 82 -41 22 -95 51 -120 66 -62 36 -186 92 -237 106 -23 6 -45
15 -50 19 -11 11 -89 45 -155 68 -32 10 -83 31 -113 45 -31 14 -91 34 -133 45
-75 19 -102 33 -89 45 6 7 133 -14 267 -43 36 -7 101 -18 145 -24 44 -6 98
-16 120 -24 22 -7 65 -16 95 -20 85 -9 192 -37 197 -51 3 -7 -4 -38 -16 -68
-24 -66 -13 -80 29 -37 22 22 30 39 30 65 0 31 3 36 24 36 58 0 70 -24 40 -81
-8 -17 -13 -36 -11 -42 6 -18 55 40 62 74 8 35 23 36 97 10 29 -10 65 -22 80
-25 56 -13 46 -151 -13 -185 -32 -18 -38 -38 -13 -48 18 -7 62 31 76 67 6 14
13 50 17 80 l6 55 55 -3 c30 -2 117 -17 194 -33 78 -17 166 -35 196 -41 30 -5
96 -20 145 -33 104 -28 265 -49 278 -36 17 17 -24 33 -105 41 -87 9 -146 22
-169 35 -7 5 -58 17 -113 27 -56 9 -121 22 -146 28 -25 6 -72 14 -106 19 -34
5 -70 14 -82 20 -11 6 -37 11 -57 11 -19 0 -52 7 -71 15 -28 12 -35 19 -29 32
19 46 17 68 -16 135 -41 85 -36 92 70 84 41 -3 89 -6 108 -6z m-2402 -40 c8
-12 -49 -71 -155 -161 -41 -35 -105 -93 -141 -129 -158 -154 -179 -172 -220
-176 -36 -5 -39 -3 -52 28 -8 18 -20 64 -27 101 -14 68 -14 69 9 86 20 15 22
23 16 51 -7 31 -6 33 16 26 53 -17 63 -12 83 32 20 44 35 52 56 27 17 -20 39
-19 47 3 9 24 53 76 53 62 0 -22 30 -22 49 1 16 20 37 26 133 40 62 9 116 17
120 18 4 0 10 -4 13 -9z m410 -1 c4 -6 0 -29 -8 -52 -9 -23 -18 -71 -21 -107
-3 -36 -12 -87 -21 -115 -8 -27 -15 -70 -15 -95 0 -25 -5 -61 -10 -80 -6 -19
-15 -64 -20 -100 -9 -74 -47 -236 -59 -257 -6 -12 -9 -12 -20 1 -16 20 -11 77
21 226 14 63 30 144 37 180 7 36 18 92 26 125 8 33 26 111 40 173 25 106 35
126 50 101z m-1003 -65 c3 -3 -7 -44 -24 -91 -33 -96 -33 -138 4 -247 10 -33
17 -69 14 -82 -7 -25 20 -38 48 -22 53 30 0 -46 -103 -147 l-51 -49 0 36 c0
28 5 38 20 43 20 6 29 45 10 45 -5 0 -10 7 -10 15 0 9 -12 21 -27 28 -16 6
-33 19 -40 27 -9 12 -14 12 -24 3 -10 -10 -9 -16 2 -29 13 -16 11 -17 -20 -11
-18 4 -40 7 -47 7 -21 0 -36 77 -32 157 3 73 0 84 -20 60 -33 -39 -14 -220 28
-274 18 -23 19 -29 7 -47 -8 -11 -18 -21 -24 -23 -11 -4 -33 39 -33 66 0 9
-11 32 -24 49 -53 72 -59 220 -13 313 15 31 23 57 18 62 -16 16 -67 -69 -81
-134 -17 -80 -1 -193 38 -259 37 -64 59 -134 66 -218 7 -70 6 -72 -17 -81 -25
-10 -57 -84 -57 -133 0 -13 -12 -35 -27 -49 -26 -23 -143 -158 -285 -328 l-62
-75 -8 29 c-4 18 -3 34 4 43 9 10 9 19 -1 34 -12 19 -10 23 10 39 21 16 22 20
10 43 -11 19 -13 52 -8 134 4 88 2 115 -10 138 -8 16 -17 52 -19 81 -2 29 -10
66 -19 84 -12 23 -16 55 -15 123 0 50 -2 108 -6 128 -4 25 2 72 16 136 18 80
29 107 56 138 l34 39 24 -27 c14 -16 32 -28 40 -28 14 0 15 21 7 83 -1 4 -10
7 -22 7 -29 0 -15 17 21 25 35 8 47 22 31 38 -17 17 -13 27 10 27 19 0 21 -5
17 -57 -2 -48 0 -58 14 -61 12 -2 22 8 31 30 16 37 53 75 64 64 4 -4 2 -16 -5
-26 -16 -27 -15 -40 4 -40 9 0 18 9 21 20 6 21 87 65 103 55 14 -8 50 13 50
30 0 7 4 16 8 19 12 7 213 38 218 34 2 -3 -12 -36 -31 -74 -35 -70 -40 -96
-29 -153 10 -47 21 -37 27 24 3 35 17 75 36 109 17 29 31 65 31 80 0 21 5 26
23 26 13 0 26 -3 29 -6z m1898 -80 c74 -30 163 -66 197 -79 34 -13 72 -30 85
-39 13 -8 48 -24 78 -36 75 -29 79 -35 45 -70 -20 -21 -38 -30 -61 -30 -33 0
-60 -22 -50 -39 17 -27 139 21 151 59 4 11 12 20 18 20 7 -1 50 -23 97 -50 47
-27 143 -79 215 -115 71 -37 142 -75 157 -86 15 -11 74 -39 130 -63 84 -35
441 -209 458 -223 2 -2 -7 -25 -20 -51 -35 -65 -123 -151 -196 -190 -34 -17
-67 -39 -74 -47 -7 -8 -22 -15 -34 -15 -11 0 -46 -10 -76 -22 -30 -11 -75 -24
-100 -28 -25 -4 -53 -11 -63 -15 -13 -5 -43 19 -133 111 -64 66 -136 145 -160
177 -24 32 -61 77 -83 100 -70 73 -174 191 -226 258 -57 72 -355 375 -460 467
-90 79 -72 80 105 6z m-137 -33 c56 -42 141 -128 200 -203 29 -37 36 -53 31
-73 -3 -14 -10 -25 -14 -25 -10 0 -56 69 -64 95 -10 35 -100 125 -124 125 -15
0 -32 16 -57 52 -54 81 -49 86 28 29z m-2488 10 c3 -5 1 -12 -5 -16 -5 -3 -10
-17 -10 -31 0 -21 -4 -24 -20 -19 -26 8 -43 -30 -72 -159 -29 -129 -33 -388
-6 -465 10 -30 18 -67 18 -83 0 -16 7 -43 16 -60 21 -40 10 -226 -12 -207 -7
6 -22 8 -34 4 -30 -9 -26 19 5 33 14 6 25 16 25 21 0 14 -28 33 -39 27 -15 -9
-25 17 -50 129 -12 55 -29 123 -36 150 -7 28 -16 97 -20 155 -9 139 9 239 64
357 45 99 46 103 29 103 -15 -1 -74 -99 -101 -169 -27 -68 -37 -402 -13 -448
9 -18 16 -41 16 -53 0 -12 11 -61 25 -110 37 -132 44 -201 30 -284 -15 -87
-51 -211 -71 -249 -17 -30 -12 -47 15 -47 10 0 20 -3 24 -6 9 -10 -93 -128
-119 -137 -13 -5 -24 -14 -24 -20 0 -15 -66 -99 -87 -110 -18 -11 -20 -9 -29
27 -6 26 -5 28 15 21 32 -10 48 9 56 66 12 85 40 153 67 159 30 8 35 36 7 43
-20 5 -21 10 -14 74 3 37 10 86 15 108 9 38 4 92 -21 257 -11 67 -24 92 -38
69 -6 -10 -1 -58 24 -232 7 -46 7 -46 -23 -47 -27 -1 -30 2 -35 41 -4 23 -13
85 -22 137 -9 52 -18 124 -20 160 -2 36 -8 84 -12 105 -10 49 -8 88 7 140 33
114 46 195 33 195 -22 0 -74 -185 -76 -270 -2 -53 15 -225 32 -340 36 -236 36
-223 -5 -406 -23 -102 -27 -111 -46 -106 -11 3 -24 -1 -28 -9 -11 -17 -3 -29
21 -29 22 0 23 -8 9 -45 l-10 -27 -19 24 c-18 21 -20 21 -26 6 -10 -25 1 -49
20 -42 12 5 15 -2 15 -37 0 -38 -5 -48 -35 -72 -39 -31 -42 -42 -19 -68 15
-17 15 -20 -7 -46 -44 -52 -149 -146 -156 -140 -3 4 6 44 20 90 15 46 27 94
27 108 0 14 6 45 14 70 34 110 76 350 91 519 3 41 8 203 9 360 3 239 6 292 20
330 10 25 29 78 42 119 35 104 122 256 153 266 10 3 23 17 30 31 13 30 56 49
137 63 33 6 76 13 98 17 37 7 38 6 27 -14 -16 -31 -14 -34 22 -30 24 2 32 8
33 23 1 11 2 23 3 28 1 10 39 9 46 -2z m1940 -111 c4 -11 1 -36 -5 -56 -8 -23
-9 -52 -4 -82 4 -26 8 -67 9 -92 5 -165 28 -523 36 -563 14 -73 11 -108 -11
-132 -23 -25 -18 -51 11 -60 10 -4 19 -13 19 -22 0 -8 -3 -13 -7 -11 -68 33
-63 23 -65 132 -1 56 -3 153 -4 216 -1 63 -4 189 -7 280 -6 184 2 410 14 410
4 0 11 -9 14 -20z m-81 -357 c-1 -353 -11 -563 -25 -563 -4 0 -14 3 -23 6 -20
7 -21 76 -5 274 5 74 14 227 20 340 20 435 35 411 33 -57z m-364 312 c0 -8 -4
-24 -9 -37 -16 -41 -60 -191 -72 -248 -20 -95 -49 -162 -67 -158 -24 5 -18 51
18 139 17 41 49 129 71 197 22 67 44 122 50 122 5 0 9 -7 9 -15z m83 -21 c-8
-67 -27 -154 -40 -184 -8 -19 -18 -57 -23 -85 -12 -69 -27 -105 -45 -105 -22
0 -19 65 4 116 11 23 24 68 31 100 14 71 29 129 41 162 10 27 35 24 32 -4z
m-551 -22 c-12 -15 -39 -52 -59 -82 -21 -30 -70 -89 -109 -130 -72 -77 -272
-317 -310 -373 -12 -18 -38 -48 -58 -66 l-36 -35 0 30 c1 16 16 58 34 94 29
56 34 61 40 42 4 -12 11 -22 15 -22 9 0 41 78 41 100 0 22 31 50 55 50 16 0
27 11 41 42 18 40 118 170 151 195 9 7 58 53 110 104 52 50 97 88 100 85 4 -3
-3 -19 -15 -34z m735 -109 c-3 -38 -12 -167 -21 -288 -8 -121 -18 -229 -21
-240 -3 -11 -7 -49 -10 -85 -17 -235 -34 -392 -55 -505 -9 -52 -15 -131 -25
-365 -9 -217 -24 -318 -49 -335 -11 -8 -24 -15 -28 -15 -11 0 -10 101 2 182 5
37 10 89 11 115 1 45 17 179 38 323 6 36 15 155 21 265 6 110 24 286 40 390
15 105 31 228 34 275 7 94 34 318 41 338 2 6 10 12 16 12 8 0 10 -20 6 -67z
m-432 -20 c-7 -34 -33 -106 -57 -160 -34 -76 -48 -98 -63 -98 -11 0 -21 8 -23
17 -5 29 141 319 154 306 1 -2 -4 -31 -11 -65z m1177 20 c38 -42 218 -396 218
-430 0 -3 -10 -3 -22 -1 -17 2 -29 22 -55 88 -22 55 -46 96 -67 115 -18 16
-39 48 -46 70 -7 22 -26 63 -41 91 -28 49 -38 94 -21 94 5 0 20 -12 34 -27z
m174 -40 c52 -72 83 -118 130 -196 16 -26 40 -64 52 -84 23 -35 23 -37 6 -50
-24 -18 -38 -3 -105 112 -129 224 -158 285 -135 285 2 0 25 -30 52 -67z m-265
-33 c6 -19 33 -87 59 -150 26 -63 53 -133 60 -154 7 -22 28 -73 47 -114 33
-74 39 -122 17 -129 -7 -2 -19 15 -27 39 -8 24 -34 88 -57 143 -98 233 -114
273 -131 339 -11 38 -19 79 -19 90 0 20 2 20 20 -4 11 -14 25 -41 31 -60z
m-740 -90 c-6 -38 -11 -97 -11 -132 0 -35 -5 -81 -10 -103 -19 -80 -51 -344
-60 -500 -9 -168 -21 -284 -45 -450 -8 -55 -17 -138 -20 -185 -4 -47 -9 -116
-13 -155 -7 -67 -8 -70 -32 -67 -52 5 -53 7 -46 90 4 42 11 102 16 132 5 30
19 127 30 215 12 88 26 194 31 235 6 41 13 93 15 115 2 22 8 67 14 100 5 33
11 99 15 147 3 48 9 109 14 135 5 26 17 102 26 168 9 66 23 143 30 170 8 28
17 68 20 90 4 22 12 65 18 95 l12 55 3 -43 c2 -24 -2 -75 -7 -112z m549 138
c0 -7 11 -35 25 -63 13 -27 31 -72 40 -100 27 -84 82 -370 78 -402 -3 -19 1
-34 11 -42 9 -8 16 -26 16 -42 0 -15 4 -30 9 -34 5 -3 12 -20 16 -38 10 -53
66 -289 80 -337 8 -25 21 -79 29 -120 8 -41 24 -102 35 -134 12 -33 21 -74 21
-91 0 -18 11 -62 24 -99 26 -70 25 -99 -2 -94 -17 3 -56 119 -73 216 -5 29
-16 71 -23 95 -8 23 -22 74 -31 112 -9 39 -25 97 -35 130 -25 78 -67 263 -79
345 -5 36 -21 106 -36 155 -14 50 -39 150 -55 223 -16 72 -33 147 -39 165 -15
47 -29 167 -19 167 4 0 8 -6 8 -12z m564 -23 c7 -18 33 -20 38 -3 5 15 28 -7
162 -165 55 -65 103 -117 108 -117 4 0 17 -18 28 -39 10 -22 30 -47 43 -58 13
-10 49 -49 82 -88 32 -38 83 -97 114 -130 98 -106 121 -137 81 -113 -15 10
-22 10 -31 1 -18 -18 -3 -46 20 -38 27 8 38 -15 15 -32 -16 -12 -20 -12 -30 2
-6 8 -16 15 -22 15 -6 0 -12 12 -14 28 -2 21 -9 28 -30 30 -18 2 -34 14 -48
37 -11 18 -43 61 -71 96 -41 51 -49 67 -44 90 5 21 1 31 -17 43 -13 9 -23 26
-23 38 0 17 -8 24 -35 29 -19 4 -39 15 -45 24 -22 36 -194 262 -209 274 -22
18 -33 6 -15 -16 9 -10 20 -30 26 -44 6 -14 34 -56 62 -94 28 -37 51 -74 51
-81 0 -51 -64 7 -135 124 -27 45 -65 105 -82 134 -18 29 -33 56 -33 60 0 15
48 8 54 -7z m-597 -81 c11 -43 22 -91 62 -284 32 -150 34 -177 15 -205 -22
-34 -29 -22 -38 63 -4 35 -11 75 -16 88 -5 13 -15 66 -21 116 -6 51 -15 102
-20 116 -5 13 -12 55 -16 94 -5 56 -3 70 7 66 7 -2 19 -26 27 -54z m-1158 -26
c-18 -35 -49 -94 -67 -133 -19 -38 -49 -92 -67 -120 -18 -27 -47 -77 -65 -110
-18 -33 -38 -67 -45 -75 -12 -13 -86 -134 -140 -226 -23 -39 -35 -42 -59 -15
-20 22 -27 8 96 187 35 50 74 110 88 133 14 24 35 55 46 70 12 14 38 53 57 86
19 33 45 69 56 79 12 11 21 24 21 31 0 16 101 167 107 161 3 -3 -10 -33 -28
-68z m1064 6 c4 -27 9 -74 11 -104 3 -48 17 -123 55 -301 12 -58 2 -104 -24
-104 -26 0 -33 33 -45 220 -6 88 -15 192 -20 230 -13 96 -12 117 3 113 6 -3
15 -27 20 -54z m-1213 -43 c0 -4 -18 -31 -40 -59 -22 -27 -40 -54 -40 -59 0
-9 -56 -91 -130 -191 -25 -33 -63 -91 -85 -127 -22 -37 -48 -76 -57 -88 -17
-22 -17 -22 -32 -2 -8 11 -15 22 -16 25 -1 19 202 286 355 468 37 43 45 49 45
33z m1475 -46 c42 -90 85 -202 85 -223 0 -11 9 -39 20 -63 25 -56 27 -144 4
-153 -23 -9 -41 9 -47 47 -6 43 -83 396 -92 425 -13 41 3 23 30 -33z m-1305
-90 c-6 -19 -27 -58 -46 -86 -19 -28 -34 -53 -34 -55 0 -7 -60 -138 -105 -229
-24 -49 -63 -138 -85 -196 -22 -58 -46 -114 -54 -124 -15 -21 -38 -12 -29 12
4 9 -2 22 -16 32 l-21 16 75 135 c42 74 105 180 140 235 36 55 83 137 104 183
22 45 44 82 49 82 5 0 12 10 15 22 4 12 9 19 13 16 3 -4 1 -23 -6 -43z m267
-67 c-3 -18 -15 -60 -27 -93 -13 -33 -26 -73 -31 -90 -22 -81 -57 -169 -68
-173 -7 -2 -11 2 -10 9 2 8 -1 24 -5 37 -8 24 3 67 40 147 12 28 31 76 41 107
20 59 38 88 55 88 6 0 8 -14 5 -32z m242 -25 c0 -21 -4 -60 -9 -88 -5 -27 -17
-115 -25 -195 -19 -176 -18 -169 -33 -200 -7 -14 -23 -99 -37 -190 -14 -91
-31 -199 -40 -240 -8 -41 -14 -117 -15 -168 0 -100 -8 -115 -53 -95 -29 13
-47 6 -47 -17 0 -22 28 -40 60 -40 34 0 21 -33 -15 -37 -92 -10 -97 -3 -79
107 18 104 26 148 54 270 34 151 47 210 65 290 9 41 26 104 36 140 11 36 37
153 59 260 22 107 45 205 50 218 15 34 30 26 29 -15z m-404 -29 c-1 -5 -13
-36 -29 -69 -16 -33 -37 -78 -47 -100 -30 -64 -105 -255 -122 -310 -23 -76
-91 -253 -121 -316 -14 -31 -26 -63 -26 -71 0 -8 -6 -23 -14 -34 -14 -18 -15
-18 -22 -1 -4 12 1 29 14 47 12 15 18 30 15 34 -11 10 -48 7 -61 -6 -9 -9 -12
-9 -12 1 0 14 102 239 149 331 16 30 34 73 41 95 7 22 16 45 20 50 3 6 15 33
24 60 10 28 26 64 36 81 10 17 32 71 50 120 18 49 37 94 42 101 10 13 63 2 63
-13z m-120 -52 c-10 -26 -31 -76 -47 -111 -16 -35 -52 -118 -79 -185 -28 -66
-57 -128 -65 -137 -8 -8 -14 -21 -14 -29 0 -26 -140 -301 -150 -295 -17 10
-12 35 25 111 19 39 49 107 66 151 17 43 37 92 45 110 8 17 14 35 14 40 0 4
20 49 44 98 24 50 63 129 86 177 46 97 82 148 88 129 2 -7 -4 -34 -13 -59z
m185 43 c0 -3 -25 -67 -56 -143 -30 -75 -69 -177 -86 -227 -16 -49 -39 -106
-50 -125 -22 -37 -70 -163 -92 -240 -7 -25 -25 -68 -39 -96 -14 -28 -31 -73
-38 -100 -7 -27 -23 -67 -35 -90 -13 -22 -24 -48 -24 -57 0 -9 -13 -45 -29
-79 -16 -35 -41 -94 -55 -133 -15 -38 -33 -81 -41 -95 -31 -54 -15 15 23 100
21 47 51 126 66 175 15 50 36 115 48 145 11 30 29 80 40 110 11 30 23 60 28
65 4 6 16 36 25 69 9 32 29 88 44 125 15 36 31 81 34 100 4 18 18 59 31 90 13
31 35 83 47 116 13 33 31 71 40 85 9 14 19 40 22 59 11 54 97 184 97 146z
m200 -15 c0 -5 -7 -35 -16 -67 -9 -32 -20 -81 -25 -110 -5 -29 -13 -63 -18
-77 -6 -13 -15 -61 -21 -106 -6 -45 -15 -90 -20 -99 -9 -17 -55 -199 -72 -286
-5 -27 -14 -54 -19 -60 -5 -5 -9 -18 -9 -28 0 -11 -5 -37 -12 -59 -10 -35 -14
-38 -38 -33 -21 5 -29 2 -34 -12 -7 -16 15 -43 36 -43 4 0 8 -9 8 -20 0 -15
-13 -26 -44 -40 -52 -22 -61 -33 -41 -53 29 -30 15 -49 -19 -24 -19 14 -19 8
24 182 79 313 126 484 188 675 22 69 46 144 53 167 6 24 20 50 31 59 10 10 18
23 18 31 0 7 7 13 15 13 8 0 15 -4 15 -10z m1762 -147 c52 -65 97 -126 101
-136 8 -22 -17 -34 -38 -17 -8 7 -26 10 -39 6 -22 -5 -30 2 -73 64 -49 71
-112 179 -113 193 0 4 15 7 34 7 31 0 41 -9 128 -117z m-334 -43 c41 -80 80
-156 87 -170 31 -59 76 -172 71 -177 -7 -8 -64 85 -136 222 -100 192 -110 212
-117 246 -13 65 20 22 95 -121z m-2428 112 c0 -10 4 -22 10 -28 6 -6 1 -22
-15 -46 -14 -20 -25 -41 -25 -45 0 -5 -29 -39 -65 -77 -57 -60 -68 -67 -80
-55 -12 12 -10 21 10 64 14 28 25 59 25 70 1 23 22 55 38 55 7 0 9 -13 5 -35
-6 -38 11 -49 22 -14 4 11 18 45 32 75 25 54 43 70 43 36z m2226 -114 c12 -19
74 -200 85 -248 9 -40 24 -78 75 -199 9 -19 19 -56 24 -82 5 -27 19 -70 31
-96 12 -27 36 -80 54 -118 18 -39 35 -82 39 -95 4 -14 12 -35 18 -48 10 -19 7
-27 -17 -52 -47 -49 -58 -42 -93 68 -63 196 -91 288 -103 342 -6 30 -22 75
-34 100 -12 25 -35 86 -49 135 -15 50 -38 127 -52 172 -20 68 -22 86 -12 107
12 28 23 33 34 14z m304 -84 c0 -3 11 -20 25 -38 14 -18 25 -36 25 -39 0 -3
31 -62 68 -129 38 -68 86 -154 107 -193 20 -38 43 -77 50 -85 19 -24 109 -191
122 -230 8 -22 9 -38 3 -44 -15 -15 -12 -46 5 -52 9 -4 27 -26 41 -49 14 -24
31 -46 38 -48 15 -6 74 -105 176 -297 36 -69 78 -143 92 -165 26 -42 68 -131
68 -146 0 -5 -11 -9 -25 -9 -15 0 -25 -6 -25 -14 0 -23 20 -29 39 -12 10 9 21
13 24 9 13 -12 7 -44 -8 -49 -8 -4 -15 -15 -15 -25 0 -49 -43 2 -91 107 -17
37 -41 83 -53 103 -13 20 -27 47 -31 61 -8 26 -40 91 -138 287 -32 62 -57 122
-57 135 0 12 -8 31 -19 42 -19 22 -75 132 -223 436 -47 96 -120 245 -162 330
-71 145 -101 226 -56 152 11 -18 20 -35 20 -38z m-430 -87 c12 -39 29 -90 36
-112 8 -22 23 -85 35 -140 11 -55 29 -125 39 -155 10 -30 22 -76 25 -102 4
-26 16 -57 26 -70 13 -15 18 -30 14 -48 -3 -14 3 -52 14 -85 34 -108 34 -114
6 -127 -14 -6 -27 -9 -30 -6 -10 10 -81 274 -115 433 -15 70 -120 478 -125
486 -3 4 -2 15 1 24 12 30 49 -20 74 -98z m253 56 c42 -68 100 -198 144 -323
8 -24 30 -76 49 -115 18 -39 36 -84 40 -101 4 -16 18 -49 31 -73 26 -50 28
-69 9 -94 -13 -17 -17 -13 -44 45 -16 35 -55 133 -86 218 -31 85 -61 162 -66
172 -5 9 -25 57 -44 106 -19 50 -41 103 -49 119 -20 40 -29 83 -17 83 5 0 20
-17 33 -37z m-490 -9 c-1 -16 5 -37 16 -49 17 -17 40 -79 72 -191 5 -17 9 -42
9 -56 0 -24 44 -220 91 -402 19 -75 18 -116 -2 -116 -5 0 -9 7 -9 15 0 8 -9
15 -19 15 -14 0 -21 -8 -23 -27 -2 -17 -10 -29 -20 -31 -15 -3 -18 4 -18 36 0
32 4 41 26 51 31 14 27 35 -9 39 -31 4 -28 -6 -57 182 -37 236 -41 261 -46
310 -3 27 -9 61 -13 77 -4 15 -4 40 1 55 7 19 5 35 -6 57 -19 36 -21 74 -3 68
6 -2 11 -17 10 -33z m1293 -79 c103 -85 189 -174 191 -197 1 -13 3 -34 5 -47
7 -52 -23 -29 -62 48 -22 45 -45 81 -51 81 -6 0 -9 -3 -7 -7 2 -5 18 -39 36
-78 26 -55 32 -80 30 -119 -2 -30 -8 -51 -16 -54 -10 -3 -13 5 -10 28 3 30 -1
34 -29 44 -22 8 -54 40 -109 111 -77 101 -134 183 -134 196 0 3 18 3 40 -1 44
-8 50 -5 50 23 0 24 7 21 66 -28z m-660 -62 c118 -223 179 -357 170 -380 -3
-7 -12 -13 -21 -13 -17 0 -43 55 -106 220 -42 111 -71 178 -95 222 -16 31 -17
38 -5 38 6 0 31 -39 57 -87z m-1084 -79 c-4 -210 -11 -310 -23 -341 -6 -15 -9
-101 -8 -199 2 -156 0 -174 -17 -195 -21 -26 -60 -35 -67 -16 -2 7 0 39 4 72
5 33 15 164 23 290 24 358 41 511 59 533 26 32 32 3 29 -144z m1504 145 c3 -6
1 -16 -5 -22 -20 -20 -13 -40 13 -33 25 6 49 -13 60 -49 3 -11 23 -43 43 -71
84 -116 133 -181 159 -212 23 -28 26 -37 16 -53 -7 -10 -12 -29 -12 -43 0 -13
-7 -29 -15 -36 -13 -11 -20 -9 -40 10 -14 13 -25 28 -25 34 0 5 -9 19 -20 31
-21 22 -59 87 -89 150 -22 48 -82 143 -128 204 -18 24 -33 49 -33 55 0 10 45
43 62 45 4 1 10 -4 14 -10z m-1232 -17 c2 -4 9 -55 15 -112 6 -58 18 -166 26
-240 7 -74 19 -191 25 -258 6 -68 13 -129 16 -136 2 -6 -2 -20 -10 -31 -22
-30 -34 -10 -46 75 -12 84 -34 360 -32 404 1 16 -5 70 -13 120 -16 97 -19 168
-8 179 9 9 21 9 27 -1z m-214 -449 c0 -247 0 -455 1 -463 5 -36 -2 -70 -13
-70 -10 0 -14 88 -16 398 -2 412 3 582 19 582 6 0 9 -177 9 -447z m297 365
c-1 -82 3 -117 43 -372 22 -139 26 -216 11 -216 -28 0 -38 34 -49 166 -24 271
-33 350 -43 412 -9 48 -8 66 1 77 28 34 37 17 37 -67z m-1787 58 c0 -15 -41
-79 -75 -116 -12 -14 -30 -38 -39 -55 -9 -16 -25 -41 -35 -55 -11 -14 -57 -79
-104 -145 -46 -66 -127 -181 -180 -255 -269 -376 -309 -430 -324 -430 -16 0
-63 44 -63 59 0 15 69 111 194 269 59 75 129 164 155 197 27 33 66 87 88 120
22 33 81 113 129 177 49 65 110 147 137 183 43 58 51 65 82 65 23 0 35 -5 35
-14z m1580 -16 c18 -26 21 -47 26 -197 3 -92 9 -184 14 -203 19 -75 38 -222
31 -247 -5 -18 -16 -30 -32 -33 -17 -4 -24 -13 -24 -30 0 -18 -6 -26 -22 -28
-30 -4 -36 -29 -10 -47 16 -11 18 -18 9 -27 -8 -8 -16 -5 -31 13 -19 23 -20
42 -20 418 0 216 2 397 5 402 10 17 33 9 54 -21z m-244 -64 c-3 -33 -8 -119
-11 -191 -10 -238 -23 -433 -29 -444 -4 -5 -9 -74 -11 -153 -6 -181 -29 -476
-38 -484 -15 -15 -19 34 -12 129 4 56 9 143 11 192 1 50 10 169 18 265 18 205
36 532 36 643 0 79 12 123 31 111 6 -4 8 -30 5 -68z m-1566 13 c0 -6 -30 -49
-67 -97 -37 -48 -88 -114 -113 -147 -25 -33 -63 -86 -84 -117 -20 -32 -62 -86
-92 -120 -30 -35 -62 -76 -71 -93 -29 -55 -76 -106 -87 -95 -15 15 -42 12 -56
-5 -41 -49 -40 35 1 152 36 102 61 154 83 172 9 8 16 23 16 35 0 12 14 35 31
52 l31 29 -15 -35 c-8 -19 -19 -46 -25 -60 -22 -52 -46 -182 -36 -197 16 -26
29 -20 32 15 3 27 7 32 21 27 16 -5 20 2 25 39 4 25 20 81 36 124 16 44 31 98
33 120 6 48 11 58 38 72 19 11 19 10 3 -30 -9 -22 -14 -43 -11 -46 12 -13 31
12 67 90 43 94 68 120 117 122 33 1 35 0 29 -28 -4 -21 -2 -28 9 -28 8 0 15 5
15 10 0 6 12 22 26 35 25 24 44 25 44 4z m388 -94 c-29 -53 -63 -113 -74 -133
-42 -73 -74 -135 -74 -143 0 -4 -24 -47 -54 -96 -29 -48 -57 -99 -61 -112 -4
-12 -18 -39 -31 -59 -14 -19 -27 -47 -31 -61 -8 -31 -128 -269 -147 -290 -7
-9 -21 -32 -31 -51 -22 -44 -19 -42 -39 -34 -26 10 -19 41 10 48 23 6 26 11
20 36 -3 18 0 34 8 43 8 7 26 45 42 83 15 38 40 90 56 115 15 26 44 82 64 125
21 44 48 97 62 119 14 22 54 94 89 159 35 66 85 149 112 185 26 36 54 77 61
91 7 14 24 40 38 59 46 62 35 14 -20 -84z m793 57 c-6 -15 -12 -50 -15 -79 -2
-29 -7 -56 -10 -61 -3 -5 -12 -40 -20 -78 -9 -38 -24 -107 -34 -154 -11 -47
-25 -124 -32 -172 -15 -98 -21 -114 -44 -105 -14 5 -14 11 -1 54 8 26 15 60
15 74 0 31 29 151 71 296 16 56 34 126 39 154 16 85 33 136 38 116 2 -10 -1
-31 -7 -45z m1899 21 c11 -21 24 -45 29 -53 5 -8 19 -40 32 -70 13 -30 41 -80
61 -112 54 -84 78 -134 78 -162 0 -14 10 -34 22 -46 27 -25 21 -31 -17 -14
-23 9 -39 29 -59 71 -16 32 -65 123 -109 203 -113 204 -108 192 -95 207 18 22
37 14 58 -24z m-2152 11 c21 -6 22 -8 6 -25 -10 -11 -14 -27 -11 -40 7 -28
-12 -108 -53 -219 -17 -47 -40 -125 -51 -175 -32 -146 -48 -187 -69 -180 -23
7 -87 -30 -95 -56 -4 -10 -15 -19 -26 -19 -23 0 -23 7 -4 53 12 30 20 35 59
41 65 10 77 56 15 56 -20 0 -29 4 -26 13 2 7 17 11 35 9 26 -3 32 0 32 17 0
11 -9 22 -21 26 -18 6 -20 13 -16 41 3 18 18 57 32 86 15 29 37 82 50 118 64
180 99 260 113 260 4 0 17 -3 30 -6z m-608 -79 c0 -8 -22 -37 -48 -67 -28 -30
-84 -118 -131 -203 -111 -204 -108 -199 -125 -210 -12 -7 -22 -3 -42 16 l-26
27 20 28 c11 16 73 110 137 209 65 99 134 199 153 223 l35 42 13 -26 c8 -14
14 -32 14 -39z m2208 -82 c12 -38 41 -126 63 -198 22 -71 54 -168 69 -215 16
-47 33 -112 39 -145 6 -33 18 -80 26 -105 40 -124 72 -234 115 -400 5 -19 23
-71 40 -115 37 -94 38 -98 80 -235 18 -58 40 -130 50 -160 10 -30 28 -89 40
-130 11 -41 28 -93 36 -115 8 -23 14 -46 14 -53 0 -7 13 -48 29 -90 16 -42 41
-120 56 -172 14 -52 35 -126 46 -165 11 -38 25 -88 30 -110 6 -21 14 -44 18
-50 5 -5 27 -71 51 -145 69 -223 78 -250 121 -375 23 -66 48 -140 56 -165 8
-25 39 -110 70 -190 72 -190 69 -180 45 -180 -11 0 -25 -7 -32 -15 -16 -19
-36 -19 -44 0 -4 10 3 20 19 27 32 14 27 34 -8 30 -22 -2 -29 5 -51 51 -36 78
-146 409 -211 642 -64 226 -83 288 -120 395 -41 116 -104 323 -121 396 -8 37
-30 110 -48 163 -19 53 -46 151 -61 216 -15 66 -31 127 -36 137 -5 9 -20 63
-35 120 -14 56 -43 148 -64 203 -40 106 -69 201 -121 405 -17 69 -40 157 -50
195 -10 39 -19 78 -19 87 0 10 -18 82 -41 160 -23 79 -45 159 -49 178 -4 19
-17 71 -29 115 -25 95 -25 101 -8 86 8 -6 24 -41 35 -78z m1212 -11 c65 -48
90 -76 84 -95 -4 -12 10 -34 41 -69 26 -29 55 -69 66 -89 10 -21 28 -44 40
-53 12 -8 30 -33 40 -56 21 -47 15 -54 -43 -48 -25 2 -34 8 -36 25 -2 13 -15
26 -34 34 -26 11 -32 10 -39 -3 -5 -9 -20 -19 -33 -22 -30 -7 -41 -38 -24 -65
9 -15 10 -23 1 -32 -15 -15 -30 -4 -48 34 -8 18 -44 73 -80 122 -69 97 -109
164 -102 172 3 2 14 -1 25 -8 27 -17 49 1 58 47 3 19 10 34 15 34 5 0 20 -22
34 -50 25 -50 38 -60 51 -39 3 6 14 -2 25 -21 21 -33 44 -32 33 3 -8 26 -81
119 -103 131 -20 11 -32 30 -48 75 l-13 33 28 -17 c15 -10 43 -29 62 -43z
m-2784 -19 c-4 -21 -13 -60 -21 -88 -8 -27 -28 -102 -44 -165 -16 -63 -37
-140 -45 -170 -9 -30 -16 -63 -16 -74 0 -36 -45 -136 -64 -142 -28 -9 -37 8
-21 41 17 39 69 194 89 265 37 136 115 370 123 370 3 0 2 -17 -1 -37z m-606
-153 c0 -10 7 -23 16 -28 14 -8 14 -12 -6 -33 -29 -32 -101 -162 -151 -274
-22 -49 -60 -121 -84 -160 -23 -38 -66 -122 -95 -185 -57 -129 -65 -139 -82
-122 -7 7 -20 12 -30 12 -25 0 -23 -36 2 -43 39 -10 22 -29 -19 -22 -22 4 -42
2 -45 -3 -10 -17 5 -41 27 -44 30 -4 37 -48 8 -48 -11 0 -23 5 -26 10 -3 6
-17 10 -31 10 -27 0 -31 16 -10 46 19 26 144 264 192 364 91 190 133 272 184
360 30 53 62 109 70 125 14 26 51 54 73 55 4 0 7 -9 7 -20z m-940 -114 c0 -8
-9 -43 -20 -78 -11 -34 -20 -82 -20 -105 0 -49 -24 -69 -78 -64 -22 2 -34 -2
-38 -13 -7 -18 -30 -21 -40 -5 -3 6 13 55 36 110 36 82 51 105 88 134 48 37
72 44 72 21z m4125 4 c12 0 63 -67 77 -102 6 -15 57 -90 156 -233 20 -27 54
-72 77 -100 37 -45 109 -147 159 -227 16 -25 17 -31 5 -39 -24 -15 -39 -10
-49 15 -23 63 -56 39 -39 -28 11 -46 13 -48 42 -42 16 3 35 2 41 -3 6 -5 26
-11 45 -13 30 -3 45 -16 110 -95 42 -50 91 -112 110 -137 18 -25 53 -66 77
-92 63 -65 87 -117 90 -191 2 -60 1 -63 -21 -63 -25 0 -42 -27 -26 -43 6 -6
20 -6 40 3 16 6 34 9 39 6 5 -3 21 4 36 15 23 18 27 19 32 4 4 -10 -2 -26 -16
-40 -19 -20 -21 -27 -11 -39 7 -8 10 -20 6 -26 -12 -19 -24 -10 -27 22 -4 42
-34 51 -47 15 -13 -34 -30 -42 -49 -23 -20 19 -102 136 -288 406 -13 19 -48
68 -76 108 -61 84 -65 92 -45 92 8 0 20 7 27 16 11 12 10 18 -3 31 -15 15 -18
15 -37 -2 -21 -19 -22 -19 -40 5 -11 14 -25 36 -32 50 -7 14 -34 57 -59 95
-57 86 -200 318 -247 402 -20 35 -53 83 -74 109 -43 52 -45 61 -21 79 10 7 14
19 10 29 -5 14 -11 15 -27 6 -18 -9 -20 -8 -20 16 0 24 3 26 31 20 17 -3 37
-6 44 -6z m-3128 -47 c-8 -10 -21 -40 -27 -68 -7 -27 -36 -99 -65 -160 -29
-60 -58 -126 -65 -145 -7 -19 -17 -39 -21 -45 -37 -52 -122 -223 -159 -320
-10 -27 -37 -82 -60 -125 -11 -19 -37 -79 -57 -132 -38 -99 -55 -117 -82 -84
-13 16 59 177 302 676 53 107 99 206 102 220 4 14 30 64 58 113 37 62 57 87
71 87 18 0 18 -1 3 -17z m2688 -35 c10 -24 24 -50 30 -58 7 -8 24 -46 39 -84
15 -38 38 -83 51 -100 14 -18 32 -52 40 -77 9 -24 27 -61 40 -81 14 -21 25
-42 25 -48 0 -9 42 -98 80 -170 85 -157 136 -276 128 -293 -12 -23 -33 -8 -43
31 -4 15 -36 81 -72 147 -36 66 -78 150 -94 188 -16 37 -42 98 -58 136 -16 38
-45 99 -65 136 -20 38 -36 75 -36 83 0 9 -9 25 -20 37 -11 12 -29 45 -39 74
-10 29 -23 57 -30 64 -13 13 -15 57 -3 57 5 0 17 -19 27 -42z m1191 -73 c26
-22 76 -66 111 -97 36 -32 68 -58 72 -58 4 0 15 -13 24 -30 21 -34 17 -37 -19
-14 -13 9 -27 14 -30 11 -14 -13 11 -70 46 -108 33 -36 38 -46 33 -75 -4 -27
-2 -34 11 -34 9 0 16 1 16 3 0 1 6 19 13 40 l13 37 63 -72 c68 -78 94 -126
117 -215 30 -115 127 -289 220 -393 24 -27 64 -123 64 -153 0 -11 -8 -31 -19
-45 -42 -61 -33 -154 25 -243 40 -63 43 -97 10 -128 -36 -34 -51 -91 -37 -145
6 -25 11 -57 11 -73 0 -15 11 -46 25 -68 13 -22 25 -51 25 -64 0 -40 -22 -100
-40 -106 -27 -9 -56 -47 -68 -90 -6 -22 -18 -49 -27 -60 -15 -20 -15 -20 -30
-1 -13 17 -13 22 1 37 23 26 12 58 -46 131 -161 203 -240 318 -240 348 0 10
-10 24 -23 32 -12 9 -28 27 -36 42 -13 23 -12 28 3 45 19 21 11 56 -19 81 -15
12 -18 12 -26 -3 -6 -9 -14 -17 -19 -17 -17 0 -11 36 9 54 21 19 33 82 20 107
-6 11 -2 22 12 35 19 17 21 16 101 -66 44 -47 92 -102 105 -123 28 -44 172
-197 186 -197 5 0 7 14 4 30 -4 17 -2 30 3 30 6 0 10 13 10 30 0 22 -15 46
-61 97 -34 37 -65 80 -71 96 -5 15 -17 27 -25 27 -18 0 -10 33 17 71 15 21 19
45 19 114 -1 89 5 111 22 85 24 -39 31 -92 15 -131 -21 -51 -21 -142 -1 -159
12 -10 16 -9 21 4 3 9 4 26 1 38 -3 12 3 48 14 81 19 56 19 62 4 115 -9 32
-26 67 -37 79 -13 14 -22 43 -27 80 -6 49 -17 73 -65 147 -56 83 -79 106 -93
93 -3 -4 20 -44 51 -90 56 -84 80 -152 58 -166 -8 -5 -8 -18 0 -49 14 -55 -1
-75 -32 -47 -20 18 -21 18 -45 -5 l-25 -23 0 22 c0 14 9 25 25 31 31 12 33 48
4 74 -18 15 -20 24 -15 61 4 26 3 46 -4 50 -5 3 -10 15 -10 26 0 23 -27 36
-42 21 -8 -8 -6 -23 6 -52 18 -46 20 -107 5 -165 -26 -96 -26 -94 23 -92 49 2
90 -19 66 -34 -7 -5 -28 -6 -46 -3 -18 4 -38 1 -45 -5 -11 -8 -21 0 -45 37
-17 26 -49 70 -71 97 -22 28 -53 69 -68 93 -15 24 -67 94 -114 155 -110 144
-121 161 -113 180 3 9 15 17 27 19 15 2 23 11 25 28 8 61 24 90 58 105 35 14
43 32 22 53 -26 26 2 22 32 -5 35 -31 64 -88 86 -172 8 -30 23 -69 33 -85 17
-28 18 -39 7 -124 -7 -59 -8 -96 -2 -102 12 -12 36 7 36 29 0 10 7 39 16 65
14 40 15 55 4 90 -6 22 -18 48 -25 56 -7 8 -15 24 -18 35 -23 78 -59 169 -76
194 -17 23 -19 37 -14 80 5 48 4 53 -17 58 -19 5 -21 11 -17 39 5 28 3 34 -13
34 -12 0 -27 16 -41 46 -13 25 -27 48 -32 51 -18 11 -19 -8 -2 -49 26 -65 47
-151 38 -159 -4 -4 -23 -5 -41 -2 -23 4 -37 14 -48 34 -21 42 -36 37 -27 -8
12 -62 9 -95 -9 -106 -13 -9 -21 -7 -35 5 -15 13 -28 14 -88 5 l-69 -10 -29
34 c-16 19 -44 57 -63 84 -18 28 -60 88 -93 135 -33 46 -57 89 -53 95 4 5 12
30 17 55 13 57 36 60 47 5 5 -22 13 -44 18 -49 6 -6 10 -24 10 -42 0 -17 7
-37 15 -44 23 -19 31 32 11 71 -10 20 -13 36 -7 42 10 10 116 11 131 2 6 -4
13 0 16 9 6 16 61 39 74 31 5 -3 14 -22 20 -43 18 -54 83 -169 88 -154 2 7
-10 42 -27 78 -17 36 -31 69 -31 74 0 23 32 7 51 -25 25 -42 39 -45 39 -8 0
30 -25 63 -49 63 -29 0 -61 30 -61 56 0 23 2 24 24 12 14 -7 46 -31 72 -53z
m-4463 -37 c-14 -29 -38 -71 -54 -93 -40 -55 -95 -134 -119 -170 -20 -31 -101
-144 -155 -219 -30 -40 -65 -59 -65 -35 0 25 393 569 411 569 4 0 -4 -24 -18
-52z m3169 -54 c15 -38 34 -89 42 -114 14 -44 62 -165 106 -265 12 -27 32 -83
46 -123 13 -40 30 -85 38 -100 9 -15 29 -70 46 -122 17 -52 35 -99 40 -105 4
-5 26 -62 48 -125 23 -63 48 -135 57 -160 10 -25 25 -72 35 -105 19 -62 63
-185 79 -220 30 -68 43 -106 38 -111 -3 -4 -12 6 -18 22 -7 16 -29 65 -49 109
-20 44 -43 98 -50 120 -17 56 -98 255 -169 419 -12 27 -26 65 -30 85 -5 20
-23 74 -41 121 -17 47 -42 118 -56 159 -14 41 -40 102 -59 135 -18 34 -56 120
-83 191 -28 72 -60 151 -72 177 -17 40 -19 51 -8 68 7 11 17 19 22 17 5 -2 22
-34 38 -73z m56 42 c10 -13 45 -82 77 -153 32 -70 69 -153 83 -183 40 -88 77
-170 112 -245 31 -67 39 -102 29 -135 -3 -11 4 -15 26 -15 25 0 30 -4 30 -25
0 -23 -3 -25 -40 -22 -22 2 -47 11 -56 20 -9 9 -36 73 -59 142 -24 69 -65 175
-91 235 -26 61 -60 149 -77 195 -17 47 -39 105 -51 130 -33 73 -24 107 17 56z
m-2605 -16 c38 0 32 -67 -20 -200 -94 -242 -116 -298 -158 -390 -108 -240
-129 -289 -152 -345 -13 -33 -29 -69 -35 -80 -6 -11 -14 -33 -18 -50 -5 -25
-11 -30 -35 -30 -24 0 -31 -5 -33 -24 -3 -20 0 -23 18 -18 16 4 20 1 18 -11
-2 -9 -12 -18 -23 -18 -11 -1 -26 -2 -32 -3 -15 -1 -17 -47 -3 -56 17 -11 11
-28 -7 -20 -10 4 -26 8 -35 9 -26 3 -28 9 -18 48 7 22 18 38 30 41 24 6 26 35
4 44 -11 4 -23 -3 -36 -20 -11 -15 -28 -27 -39 -27 -10 0 -19 1 -19 3 0 7 50
127 80 192 16 36 30 70 30 75 0 5 34 79 75 165 41 85 75 160 75 166 0 7 35 80
79 164 43 83 95 189 116 236 52 116 83 162 101 155 9 -3 25 -6 37 -6z m-1313
-29 c0 -5 -14 -39 -30 -76 -17 -37 -35 -89 -41 -114 -6 -25 -17 -73 -26 -107
-16 -65 -9 -144 15 -152 9 -3 12 18 12 78 0 55 7 102 21 148 31 95 39 98 39
10 0 -42 5 -80 10 -83 13 -8 15 1 29 104 12 96 21 112 52 93 26 -16 74 -7 97
19 17 17 20 17 40 3 12 -8 22 -21 22 -27 0 -13 -90 -136 -227 -310 -21 -27
-54 -66 -73 -87 -19 -21 -51 -60 -70 -88 -19 -28 -44 -55 -55 -62 -11 -6 -39
-37 -63 -69 -91 -125 -108 -121 -98 28 13 190 24 238 53 227 8 -4 26 0 39 9
14 9 34 13 52 9 33 -7 50 9 33 30 -6 8 -29 16 -51 20 -49 8 -51 21 -11 92 28
48 30 64 10 64 -4 0 -25 -31 -46 -70 -36 -66 -62 -86 -78 -60 -11 18 53 107
135 186 60 58 75 57 49 -3 -23 -52 -31 -153 -13 -160 7 -2 14 15 18 43 7 55
91 260 120 292 20 23 36 29 36 13z m4354 -80 c40 -52 219 -312 270 -392 15
-25 17 -36 8 -70 -9 -35 -8 -43 10 -61 19 -19 19 -19 -9 -16 -36 4 -62 51 -44
80 15 23 7 38 -17 31 -25 -6 -30 1 -115 167 -41 80 -95 183 -121 229 -50 91
-50 91 -37 91 6 0 30 -26 55 -59z m-4090 -98 c-39 -59 -206 -284 -234 -314 -8
-9 -32 -39 -53 -65 -21 -27 -66 -85 -100 -129 -34 -44 -82 -107 -107 -139 -25
-33 -60 -76 -79 -95 -18 -20 -45 -52 -60 -71 -14 -19 -58 -68 -98 -108 -40
-40 -73 -76 -73 -80 0 -10 -164 -182 -173 -182 -27 0 14 58 142 199 48 52 100
113 116 137 17 24 89 111 160 194 72 83 149 175 172 203 24 29 79 95 124 147
44 52 110 136 147 186 73 98 145 184 150 179 2 -2 -13 -30 -34 -62z m2730 -35
c97 -536 146 -852 161 -1043 3 -44 14 -127 25 -185 24 -132 22 -203 -4 -208
-10 -2 -23 1 -29 7 -6 6 -19 11 -28 11 -10 0 -21 5 -25 11 -10 16 -23 117 -34
264 -5 72 -16 173 -24 225 -14 88 -29 250 -41 445 -3 44 -10 112 -15 150 -20
146 -42 386 -36 400 3 8 12 15 19 15 10 0 19 -28 31 -92z m-965 37 c11 -11 10
-14 -8 -20 -24 -7 -27 -26 -9 -55 10 -16 9 -23 -10 -43 -17 -18 -19 -26 -10
-35 7 -7 20 -12 30 -12 20 0 22 -8 9 -29 -5 -8 -5 -26 1 -43 8 -22 6 -34 -6
-53 -10 -16 -14 -34 -10 -50 7 -27 -7 -183 -32 -375 -37 -285 -45 -340 -59
-420 -8 -47 -21 -139 -30 -205 -9 -66 -17 -120 -18 -121 -1 -1 -21 -4 -44 -7
-47 -6 -74 12 -55 36 7 8 8 18 1 27 -8 12 -13 10 -30 -12 -23 -31 -44 -36 -53
-13 -3 8 -12 15 -21 15 -22 0 -18 -31 5 -37 11 -3 20 -12 20 -19 0 -8 10 -14
23 -14 13 0 26 -3 29 -6 11 -10 -24 -64 -41 -64 -27 0 -32 -11 -17 -36 18 -26
11 -37 -15 -23 -14 7 -17 17 -12 42 3 17 10 38 16 44 14 19 1 42 -21 36 -11
-2 -29 0 -39 6 -19 10 -19 15 19 198 21 103 49 235 62 293 14 58 36 168 51
245 24 133 68 352 105 532 14 65 23 88 48 112 17 17 35 31 40 31 5 0 15 6 21
14 10 12 8 19 -7 34 -11 11 -25 21 -33 24 -7 2 -9 9 -5 17 10 15 84 5 105 -14z
m-1419 -16 c0 -12 8 -23 20 -26 14 -4 20 -14 20 -32 0 -26 -73 -161 -128 -236
-16 -22 -37 -55 -46 -73 -9 -18 -28 -37 -41 -42 -17 -7 -22 -14 -18 -30 3 -11
0 -27 -7 -35 -11 -14 -15 -14 -36 0 -13 8 -28 15 -34 15 -18 0 -11 -35 10 -53
27 -23 17 -37 -25 -37 -40 0 -53 -24 -28 -53 18 -19 17 -19 -13 -13 -40 9 -57
-21 -25 -43 27 -17 26 -30 -2 -63 -17 -21 -28 -26 -49 -21 -36 7 -36 31 -1 35
43 5 40 32 -6 64 -22 16 -41 34 -41 41 0 18 19 26 34 14 16 -14 46 -4 46 15 0
7 9 18 20 24 11 6 20 21 20 34 0 13 7 29 15 36 17 14 20 40 5 40 -5 0 -10 9
-10 19 0 18 22 53 98 161 18 25 52 74 77 110 62 90 126 170 136 170 5 0 9 -9
9 -21z m2770 -9 c0 -12 7 -31 14 -43 14 -21 61 -220 86 -362 7 -38 21 -87 31
-108 10 -22 19 -48 19 -59 0 -11 9 -57 19 -102 26 -109 50 -231 67 -346 7 -52
23 -129 34 -170 24 -89 43 -199 36 -217 -8 -21 -44 -15 -61 10 -8 13 -19 43
-24 68 -5 24 -19 87 -30 139 -11 52 -25 135 -30 183 -6 48 -13 92 -16 98 -4 5
-13 58 -21 116 -7 59 -21 128 -29 153 -8 25 -26 110 -40 190 -27 161 -54 293
-79 388 -9 34 -14 67 -11 72 11 18 35 10 35 -10z m413 -15 c15 -29 25 -47 45
-77 10 -15 45 -94 77 -175 33 -82 90 -224 128 -318 91 -225 123 -313 114 -321
-3 -4 -20 -1 -36 6 -26 11 -34 9 -60 -9 -34 -24 -48 -58 -32 -74 6 -6 38 -9
71 -8 35 1 60 -2 60 -8 0 -5 -10 -11 -21 -13 -12 -2 -27 -12 -33 -23 -20 -37
-46 -46 -46 -17 0 18 -18 42 -31 42 -4 0 -15 -7 -23 -16 -15 -14 -17 -14 -22
3 -3 10 -12 34 -19 53 -7 19 -23 71 -35 115 -13 44 -52 166 -88 270 -35 105
-83 252 -105 327 -39 129 -40 138 -24 156 9 10 19 38 21 63 3 24 5 45 5 47 3
12 46 -7 54 -23z m-580 -39 c-4 -19 1 -25 27 -34 28 -10 30 -13 19 -33 -10
-19 -8 -25 10 -39 19 -13 29 -51 66 -231 23 -118 54 -259 68 -314 32 -122 97
-432 112 -532 6 -41 6 -43 -18 -43 -14 0 -27 -6 -29 -12 -3 -8 -19 -12 -42
-10 -32 3 -37 1 -34 -15 3 -17 23 -21 58 -12 17 5 25 -38 15 -78 -7 -29 -25
-21 -25 13 0 28 -20 31 -56 8 -13 -9 -27 -14 -31 -11 -7 7 -37 201 -58 372 -8
66 -19 138 -25 160 -6 22 -15 72 -20 110 -9 75 -44 288 -60 370 -26 137 -33
270 -13 286 7 6 13 27 13 45 0 24 4 32 14 28 8 -3 11 -14 9 -28z m-279 -129
c4 -50 12 -121 17 -157 5 -36 14 -130 19 -210 16 -240 28 -367 39 -422 6 -29
15 -111 21 -183 6 -71 15 -157 20 -190 5 -33 14 -125 19 -205 13 -175 28 -347
41 -455 5 -44 19 -159 30 -255 11 -96 24 -200 29 -230 5 -30 10 -85 10 -122
l1 -68 -40 0 c-25 0 -40 5 -40 13 0 6 -5 53 -10 102 -6 50 -12 124 -15 165
-10 153 -37 398 -51 478 -8 45 -14 95 -13 110 2 15 0 52 -4 82 -4 30 -14 156
-22 280 -9 124 -20 281 -25 350 -6 69 -15 213 -20 320 -6 107 -18 247 -26 310
-15 111 -26 385 -16 395 16 16 30 -26 36 -108z m-1089 61 c-4 -24 -20 -99 -35
-168 -16 -69 -38 -177 -50 -240 -53 -283 -62 -329 -80 -395 -11 -38 -28 -124
-39 -190 -11 -66 -30 -163 -42 -215 -11 -52 -23 -106 -26 -120 -12 -65 -14
-70 -33 -70 -10 0 -22 4 -25 10 -8 13 12 162 29 220 8 25 19 70 25 100 29 137
94 420 151 660 22 91 51 221 66 290 28 131 38 160 55 160 7 0 8 -15 4 -42z
m3054 -21 c25 -43 128 -174 186 -237 62 -66 200 -258 192 -266 -5 -5 -104 100
-144 154 -15 20 -50 64 -78 97 -57 67 -125 161 -125 173 0 4 -18 29 -40 56
-39 47 -52 80 -27 71 6 -3 23 -24 36 -48z m-2156 23 c3 -13 14 -20 30 -20 13
0 29 -6 35 -12 5 -7 13 -69 16 -138 4 -69 9 -141 12 -162 5 -30 2 -37 -14 -42
-16 -6 -20 -15 -19 -52 0 -38 4 -48 24 -57 26 -12 31 -45 8 -54 -9 -3 -24 2
-35 12 -20 18 -51 17 -57 -2 -3 -7 7 -23 20 -36 19 -17 24 -29 20 -52 -8 -41
-31 -65 -64 -65 -22 0 -30 -6 -35 -25 -3 -14 -10 -25 -14 -25 -12 0 -18 56
-19 185 -1 66 -4 190 -6 276 -5 142 -4 157 13 172 10 9 29 40 42 67 25 54 35
61 43 30z m-1044 -26 c46 -10 46 -10 -39 -344 -11 -41 -22 -93 -25 -115 -22
-144 -60 -312 -75 -330 -10 -11 -23 -30 -29 -42 -6 -13 -19 -22 -29 -21 -9 1
-34 0 -54 0 -33 -2 -38 -5 -38 -26 0 -17 -7 -26 -26 -30 -15 -4 -28 -5 -30 -3
-3 2 9 44 26 93 17 49 38 118 47 154 8 36 24 82 34 102 11 21 29 77 40 125 11
49 27 108 34 133 8 25 26 85 41 133 21 71 32 90 50 98 25 9 33 42 14 54 -13 8
-3 25 14 25 8 0 28 -3 45 -6z m905 -23 c9 -14 17 -271 31 -956 4 -174 2 -213
-11 -232 -25 -39 -34 -26 -33 50 0 39 -2 160 -5 267 -14 454 -13 674 1 703 13
25 13 31 -1 46 -20 22 -20 40 1 63 15 17 15 19 0 36 -10 10 -14 22 -10 25 9 9
21 9 27 -2z m-448 -23 c15 -23 13 -102 -2 -198 -9 -52 -18 -131 -20 -175 -5
-99 -30 -296 -44 -352 -5 -23 -15 -82 -20 -130 -6 -48 -15 -113 -20 -143 -5
-30 -17 -125 -26 -210 -9 -85 -20 -159 -24 -163 -10 -11 -47 8 -59 31 -6 11
-6 34 -1 58 5 21 16 89 24 149 9 61 21 139 26 175 29 192 51 369 60 480 6 69
18 163 26 209 8 46 14 99 14 117 0 23 6 38 20 46 24 15 26 36 5 44 -18 7 -19
27 -5 55 12 22 35 25 46 7z m-2622 -70 c7 -13 6 -25 -6 -50 -11 -21 -17 -27
-17 -15 -2 40 -37 5 -80 -80 -16 -32 -27 -42 -48 -45 -20 -2 -29 -9 -31 -25
-2 -15 -10 -23 -23 -23 -25 0 -59 18 -59 31 0 17 223 230 238 227 8 -2 20 -11
26 -20z m100 9 c16 -12 17 -19 7 -66 -6 -28 -14 -110 -18 -181 -3 -71 -10
-127 -15 -124 -4 3 -18 24 -29 46 -15 30 -24 37 -32 29 -19 -19 -24 -13 -32
37 -12 68 -8 89 32 172 50 107 55 111 87 87z m491 -68 c22 -41 13 -63 -68
-174 -36 -49 -86 -119 -112 -155 -176 -248 -257 -351 -275 -345 -24 7 -35 -11
-19 -31 15 -18 4 -31 -31 -36 -20 -2 -26 -9 -28 -36 -2 -24 -11 -36 -33 -48
-19 -10 -32 -25 -36 -44 -3 -17 -11 -30 -17 -30 -6 0 -23 -7 -38 -14 -16 -8
-28 -11 -28 -6 0 4 6 10 13 13 23 9 -8 42 -37 39 -34 -4 -67 14 -60 33 4 9 19
15 40 15 39 0 54 21 33 46 -10 12 -10 18 3 30 13 13 19 14 37 2 20 -12 24 -10
42 11 24 30 24 42 -1 48 -43 11 -6 48 39 38 32 -7 51 9 32 28 -6 6 -11 15 -11
19 0 4 31 43 68 85 71 82 237 286 309 380 51 67 141 163 154 163 4 0 16 -14
24 -31z m1400 -61 c-4 -24 -14 -52 -21 -63 -8 -12 -20 -57 -28 -101 -8 -45
-21 -94 -29 -111 -9 -16 -30 -76 -47 -133 -16 -57 -45 -146 -64 -199 -39 -111
-82 -252 -91 -298 -5 -26 -12 -33 -30 -33 -27 0 -35 16 -24 45 4 11 26 85 49
165 23 80 59 197 81 260 21 63 48 144 59 180 12 36 28 85 37 110 8 25 24 77
35 115 21 73 41 105 65 105 12 0 13 -9 8 -42z m-937 2 c10 -16 8 -28 -13 -72
-48 -100 -192 -338 -205 -338 -11 0 -31 51 -25 61 4 5 17 9 30 9 30 0 39 14
25 40 -12 23 -8 33 78 180 94 161 88 155 110 120z m135 -43 c22 -8 22 -40 0
-58 -13 -11 -17 -11 -21 -1 -7 22 -34 43 -51 40 -22 -5 -20 -39 4 -52 42 -23
50 -72 13 -78 -19 -2 -23 -8 -20 -36 1 -20 -2 -32 -10 -32 -7 0 -24 -3 -38 -6
-21 -5 -22 -4 -7 6 9 6 17 20 17 30 0 28 -50 28 -57 0 -3 -11 -12 -20 -20 -20
-11 0 -8 11 13 48 15 26 35 63 46 82 10 19 24 44 30 55 7 11 19 31 26 43 14
24 14 24 35 4 12 -10 30 -22 40 -25z m1622 -39 c-2 -40 -6 -183 -10 -318 -3
-135 -10 -315 -17 -400 -6 -85 -14 -211 -17 -280 l-6 -125 -29 -3 -29 -4 7 94
c14 212 27 368 36 458 6 52 15 164 20 248 5 85 12 157 15 162 3 5 7 56 9 113
4 94 9 127 21 127 2 0 2 -33 0 -72z m1283 19 c12 -29 33 -98 46 -153 14 -54
38 -142 55 -194 16 -52 34 -113 40 -135 5 -22 30 -111 57 -199 36 -121 45
-162 37 -175 -8 -13 -7 -26 3 -50 16 -38 19 -91 5 -91 -15 0 -24 -39 -13 -53
13 -16 17 -67 7 -91 -6 -14 -4 -23 10 -30 10 -6 27 -19 37 -28 10 -10 24 -18
31 -18 23 0 37 -23 37 -61 0 -51 -36 -64 -94 -34 -34 18 -53 19 -58 3 -7 -19
-28 2 -28 28 0 25 18 32 37 13 8 -8 17 -8 33 1 28 15 20 35 -15 35 -16 1 -30
6 -33 13 -2 7 -10 12 -18 12 -8 0 -19 12 -24 26 -14 35 -13 35 17 32 22 -3 28
2 34 27 11 38 -11 66 -35 46 -9 -7 -21 -11 -28 -8 -17 6 -35 75 -44 163 -4 38
-10 76 -15 85 -13 25 -49 199 -49 236 0 18 -11 81 -25 139 -14 58 -23 109 -20
114 5 8 -17 90 -60 230 -13 41 -26 96 -30 123 l-7 47 44 0 c44 0 44 0 66 -53z
m-2302 -18 c25 -21 21 -63 -17 -172 -35 -103 -108 -365 -147 -529 -16 -66 -17
-68 -48 -68 -41 0 -48 9 -23 29 19 15 20 18 5 30 -22 19 -49 6 -41 -19 7 -22
-5 -26 -22 -9 -19 19 -35 0 -28 -32 6 -28 5 -29 -23 -27 -47 3 -64 -17 -56
-68 5 -36 3 -45 -11 -50 -9 -4 -21 -17 -26 -30 -9 -26 -29 -32 -29 -9 0 8 11
40 25 71 14 31 30 75 36 97 11 44 31 93 110 272 27 61 51 126 55 145 3 19 21
73 39 120 18 47 43 111 55 142 12 31 30 64 41 74 10 9 19 26 19 37 0 17 5 18
38 12 20 -4 42 -11 48 -16z m927 -40 c-2 -13 -7 -130 -11 -260 -5 -130 -12
-240 -15 -245 -3 -5 -8 -54 -11 -109 -12 -186 -27 -358 -32 -366 -3 -5 -18 -6
-33 -3 -21 4 -38 0 -60 -17 -19 -14 -35 -19 -40 -13 -14 13 10 190 74 569 14
77 27 179 31 227 4 63 11 94 25 111 10 14 21 44 25 68 4 24 11 50 17 57 15 19
32 8 30 -19z m173 -59 c8 0 11 -6 7 -16 -7 -19 16 -64 34 -64 18 0 17 25 -2
40 -8 7 -15 16 -15 21 0 16 27 10 51 -11 l24 -20 -24 -20 c-21 -18 -23 -25
-17 -71 4 -28 13 -61 20 -73 13 -21 21 -188 18 -406 0 -52 -1 -133 -2 -180 0
-102 -5 -113 -46 -101 -16 4 -35 6 -41 4 -15 -5 -17 -39 -3 -48 6 -3 10 -10
10 -16 0 -15 -22 -10 -35 8 -11 15 -14 15 -36 0 -13 -10 -28 -17 -33 -17 -9 0
-4 110 14 320 5 58 12 206 15 330 4 128 11 235 17 247 8 17 8 30 -1 49 -6 14
-9 36 -5 47 l7 22 15 -23 c8 -12 20 -22 28 -22z m2339 20 c3 -5 17 -10 30 -10
14 0 32 -11 44 -26 27 -34 174 -264 227 -354 23 -39 50 -81 61 -93 12 -12 28
-37 37 -55 10 -18 24 -41 32 -50 9 -9 33 -44 54 -77 50 -76 113 -172 137 -207
10 -15 43 -65 74 -110 31 -46 65 -99 77 -119 12 -20 36 -53 53 -75 32 -40 79
-126 79 -144 0 -5 -11 -10 -25 -10 -30 0 -43 -25 -27 -51 10 -15 7 -25 -11
-51 -34 -51 -60 -115 -54 -132 4 -9 15 -16 26 -16 24 0 36 -29 16 -36 -8 -4
-15 -15 -15 -25 0 -22 -13 -25 -28 -6 -5 6 -27 46 -49 87 -22 41 -68 127 -102
190 -35 63 -105 196 -156 295 -51 99 -111 212 -134 250 -22 39 -89 167 -149
285 -59 118 -120 233 -133 255 -28 46 -55 107 -63 147 -4 17 -18 34 -36 43
-35 18 -36 22 -13 70 16 34 36 45 48 25z m-5445 -32 c0 -12 7 -29 16 -39 14
-16 13 -28 -11 -144 -27 -131 -29 -195 -7 -203 8 -2 12 11 12 45 0 55 37 274
48 285 4 4 20 10 36 14 l29 7 -5 -57 c-5 -58 3 -76 26 -57 7 6 28 12 47 13 32
3 34 1 34 -27 0 -26 -4 -30 -29 -33 -24 -3 -27 -7 -23 -30 4 -21 -8 -41 -67
-110 -39 -46 -89 -107 -111 -134 -22 -28 -62 -74 -90 -103 -78 -82 -160 -175
-207 -234 -52 -66 -73 -80 -89 -64 -10 10 -6 17 14 33 29 23 34 49 15 68 -8 8
-8 15 2 27 11 13 11 21 2 36 -8 13 -13 66 -13 152 -1 133 1 144 54 322 7 23
22 54 35 70 13 17 39 51 58 78 19 26 39 47 44 47 4 0 11 -12 14 -28 5 -19 -4
-51 -29 -109 -41 -94 -60 -181 -50 -230 10 -57 29 -33 37 48 3 41 10 90 16
109 13 50 70 160 83 160 7 0 8 -7 4 -17 -5 -10 -19 -63 -31 -118 -32 -134 -32
-303 -1 -292 7 2 10 34 8 91 -4 137 31 292 86 372 12 19 23 44 23 54 0 11 5
20 10 20 6 0 10 -10 10 -22z m810 4 c0 -28 -31 -76 -93 -144 -32 -34 -74 -90
-95 -122 -20 -32 -62 -86 -93 -120 -31 -34 -79 -103 -108 -153 -29 -51 -54
-93 -56 -93 -2 0 -10 -3 -19 -6 -35 -14 -13 37 50 117 37 45 82 108 102 138
19 31 48 72 64 91 48 58 131 171 178 243 43 65 70 85 70 49z m995 -61 c-10
-25 -23 -52 -29 -60 -17 -22 -36 -84 -36 -121 0 -20 -4 -40 -9 -45 -14 -15
-118 -265 -126 -302 -7 -36 -22 -50 -36 -36 -6 6 -4 26 6 54 8 24 27 78 41
119 23 70 97 240 130 302 8 14 14 32 14 38 0 7 12 40 27 74 32 70 46 52 18
-23z m2079 -35 c9 -43 16 -92 16 -110 0 -17 7 -65 16 -106 9 -41 18 -93 19
-115 2 -22 11 -83 19 -135 9 -52 21 -122 26 -155 4 -33 16 -96 24 -140 21
-104 20 -107 -6 -103 -26 3 -29 16 -48 178 -6 52 -17 147 -26 210 -8 63 -21
171 -29 240 -8 69 -21 158 -30 198 -17 82 -20 141 -6 127 5 -6 16 -45 25 -89z
m-2656 -71 c2 -11 9 -25 16 -30 42 -33 -55 -255 -110 -255 -25 0 -32 -18 -13
-37 6 -6 8 -16 4 -23 -5 -8 -12 -5 -22 9 -8 12 -25 21 -37 21 -13 0 -29 7 -36
15 -7 8 -18 15 -26 15 -26 0 -24 21 6 77 68 125 115 193 132 193 10 0 23 9 30
20 16 26 52 22 56 -5z m4120 -20 c2 -11 12 -29 22 -40 9 -11 43 -72 74 -135
32 -63 67 -131 79 -152 63 -104 104 -183 206 -387 61 -124 111 -228 111 -233
0 -4 -9 -8 -20 -8 -23 0 -35 -22 -26 -45 5 -13 10 -14 27 -4 17 9 20 8 17 -3
-4 -8 -19 -12 -46 -10 -42 2 -62 -12 -43 -31 17 -17 14 -49 -5 -45 -10 2 -31
42 -55 102 -22 55 -43 105 -48 110 -5 6 -12 22 -16 36 -4 14 -20 52 -35 85
-16 33 -54 116 -85 185 -31 69 -63 132 -71 141 -8 8 -14 19 -14 23 0 3 -25 57
-55 119 -53 105 -66 145 -66 192 0 19 -14 80 -26 111 -5 12 2 15 33 12 30 -2
40 -8 42 -23z m-4578 1 c0 -20 16 -28 62 -32 44 -4 58 -10 58 -25 0 -6 -12 -8
-29 -4 -36 8 -44 -4 -29 -45 8 -25 8 -38 -1 -51 -6 -10 -11 -26 -11 -36 0 -9
-24 -53 -54 -98 -30 -45 -78 -123 -107 -173 -28 -51 -58 -92 -65 -92 -7 0 -21
12 -32 28 -17 22 -23 25 -34 14 -11 -11 -10 -16 6 -27 17 -13 17 -18 6 -45 -7
-16 -19 -30 -26 -30 -17 0 -18 17 -1 23 9 3 9 11 1 35 -8 20 -8 34 -1 41 15
15 0 41 -25 40 -13 0 -35 3 -50 6 -22 6 -29 2 -41 -21 -16 -32 -67 -83 -67
-68 0 5 15 31 33 59 19 27 51 77 73 110 21 33 66 94 99 135 33 41 73 94 87
116 15 23 47 58 72 79 25 20 48 45 51 56 7 22 25 26 25 5z m4309 -73 c-5 -30
10 -58 41 -81 19 -14 30 -32 30 -46 0 -13 7 -30 17 -37 18 -15 53 -89 143
-299 32 -74 91 -205 133 -290 41 -85 94 -198 117 -250 23 -52 51 -115 62 -138
18 -40 18 -45 4 -61 -9 -10 -16 -23 -16 -30 0 -6 -12 -22 -27 -35 -18 -15 -24
-28 -20 -40 11 -28 39 -14 52 24 14 43 45 54 45 16 0 -15 8 -30 20 -36 35 -19
24 -38 -20 -34 -21 2 -41 0 -44 -4 -3 -4 7 -27 22 -50 24 -38 31 -42 68 -42
37 0 64 -13 64 -32 0 -4 -11 -8 -25 -8 -14 0 -29 -8 -35 -20 -8 -15 -17 -19
-35 -14 -28 7 -46 -19 -26 -39 6 -6 11 -19 11 -29 0 -29 23 -21 69 22 23 22
46 40 51 40 6 0 10 -14 10 -31 0 -35 -32 -68 -67 -69 -14 0 -32 -15 -50 -40
-15 -22 -31 -40 -34 -40 -7 0 -29 46 -29 60 0 6 9 10 20 10 11 0 20 6 20 13 0
23 -13 28 -32 11 -17 -16 -19 -14 -42 37 -13 30 -45 113 -71 184 -61 167 -112
292 -174 431 -27 61 -72 176 -99 255 -27 80 -71 194 -97 254 -31 70 -49 126
-51 155 -1 25 -2 53 -3 62 0 10 -15 32 -32 49 -23 24 -29 37 -23 53 4 11 7 38
8 58 1 20 10 46 20 57 23 26 28 26 25 4z m171 -60 c85 -184 128 -270 233 -478
9 -16 34 -75 57 -130 23 -55 55 -127 70 -160 15 -33 47 -109 70 -170 23 -60
46 -114 50 -120 11 -14 60 -153 60 -170 0 -8 -7 -11 -18 -8 -26 6 -97 152
-207 423 -100 247 -142 350 -182 440 -11 25 -26 61 -33 80 -8 19 -42 90 -76
157 -34 66 -63 129 -64 140 -7 59 12 57 40 -4z m-4339 -113 c18 0 8 -28 -29
-81 -22 -30 -56 -85 -77 -124 -20 -38 -43 -77 -50 -85 -7 -8 -38 -57 -70 -109
-57 -95 -114 -170 -127 -171 -21 0 -3 55 41 128 27 44 51 88 54 97 4 8 26 46
50 83 25 37 57 92 72 122 48 95 93 153 113 145 7 -3 18 -5 23 -5z m1178 -112
c24 0 42 -6 45 -14 3 -8 12 -14 21 -14 21 0 9 -78 -16 -104 -17 -19 -19 -19
-37 -2 -13 11 -28 15 -43 11 -21 -5 -24 -2 -25 25 -1 17 -9 39 -18 49 -23 26
-13 65 15 56 10 -4 36 -6 58 -7z m2805 -34 c12 -32 6 -44 -23 -44 -39 0 -45
-12 -30 -55 10 -26 19 -35 36 -35 16 0 23 6 23 19 0 11 9 21 23 25 37 10 57 7
57 -9 0 -10 -10 -15 -30 -15 -23 0 -30 -4 -30 -20 0 -13 -10 -24 -25 -30 -15
-6 -25 -17 -25 -30 0 -18 6 -20 55 -20 47 0 55 3 55 18 0 26 11 34 27 21 17
-15 17 -39 -1 -39 -8 0 -18 -4 -21 -10 -8 -13 13 -50 29 -50 9 0 12 -9 8 -25
-4 -21 1 -27 25 -35 27 -10 33 -22 72 -143 23 -73 51 -152 60 -177 45 -111 82
-212 109 -295 16 -49 49 -139 72 -199 l43 -109 -23 -17 c-15 -11 -21 -23 -17
-33 3 -9 2 -19 -3 -22 -15 -9 -12 -42 4 -48 17 -7 32 9 37 37 2 11 9 21 16 23
17 6 33 -57 21 -80 -5 -11 -7 -29 -4 -42 4 -15 1 -25 -9 -29 -25 -9 -18 -38 8
-34 16 2 22 9 21 26 -1 36 29 22 37 -16 4 -19 12 -39 18 -45 17 -17 13 -64 -5
-71 -29 -11 -54 -6 -74 14 -20 20 -20 20 -75 -22 -31 -23 -54 -47 -51 -54 3
-7 -3 -19 -13 -28 -21 -19 -34 -8 -44 34 -3 14 -18 57 -32 95 -34 88 -152 425
-170 485 -7 25 -22 70 -34 100 -11 30 -34 102 -52 160 -17 58 -42 136 -56 173
-19 51 -22 72 -14 80 16 16 14 37 -3 37 -23 0 -31 22 -12 32 23 13 20 33 -8
48 -27 14 -43 57 -27 73 17 17 13 48 -6 63 -17 11 -16 14 10 38 32 29 32 33
10 58 -23 25 -40 23 -47 -8 -11 -43 -31 -21 -34 37 l-3 54 26 -25 c29 -27 49
-18 43 21 -3 21 -8 24 -45 24 -50 0 -73 16 -53 40 10 12 16 13 27 4 19 -16 37
2 39 39 1 15 3 30 3 34 1 4 16 9 34 11 17 2 35 5 38 5 4 1 10 -5 13 -14z
m-3449 -48 c-26 -21 -28 -26 -16 -40 11 -13 11 -22 3 -39 -6 -12 -13 -38 -17
-58 -3 -20 -21 -77 -41 -125 -19 -49 -44 -116 -55 -149 -29 -84 -62 -168 -70
-178 -3 -4 -28 3 -54 17 -26 15 -54 26 -60 26 -7 0 -15 7 -19 15 -7 19 -30 19
-46 1 -6 -8 -23 -16 -37 -18 -15 -2 -28 -9 -31 -15 -6 -21 27 -27 48 -8 15 13
25 15 47 7 l28 -9 -28 -14 c-18 -8 -30 -23 -34 -41 -6 -31 -39 -40 -49 -13 -8
19 -38 19 -54 0 -10 -12 -8 -20 12 -44 28 -37 41 -38 65 -7 15 19 23 22 37 14
21 -12 46 -4 46 16 0 7 12 21 26 31 29 18 43 15 19 -5 -8 -7 -15 -23 -15 -36
0 -24 -25 -44 -55 -44 -24 0 -75 -41 -75 -61 0 -23 24 -31 47 -14 20 16 73 20
73 5 0 -5 -6 -13 -13 -17 -23 -15 -47 -62 -47 -93 0 -16 -4 -30 -10 -30 -5 0
-10 20 -10 44 0 53 -16 68 -40 38 -12 -14 -24 -19 -39 -15 -16 4 -21 1 -21
-16 0 -14 6 -21 18 -21 19 0 42 -37 42 -66 0 -8 -8 -18 -18 -22 -30 -11 -112
-88 -112 -105 0 -18 27 -30 35 -17 4 6 15 10 26 10 23 0 25 -27 3 -51 -13 -14
-13 -22 -4 -39 9 -17 9 -29 1 -46 -6 -13 -8 -36 -6 -51 7 -41 -24 -98 -54 -99
-35 -2 -63 -42 -57 -81 3 -19 -1 -36 -9 -43 -7 -6 -15 -24 -19 -41 -5 -25 -9
-29 -26 -24 -11 4 -20 2 -20 -4 0 -6 -8 -18 -18 -28 -23 -22 -43 -91 -36 -120
5 -17 0 -22 -23 -27 -34 -8 -123 -87 -123 -110 0 -28 29 -29 64 -2 19 14 39
26 45 26 18 0 -9 -52 -46 -88 -26 -26 -32 -39 -27 -58 8 -30 -7 -31 -25 -2
-13 21 -14 21 -26 4 -11 -15 -11 -26 3 -64 9 -26 24 -52 32 -59 12 -10 13 -15
3 -32 -7 -12 -13 -29 -13 -39 0 -22 -56 -162 -70 -176 -6 -6 -12 -3 -16 8 -8
21 -122 96 -146 96 -11 0 -18 -7 -18 -20 0 -13 7 -20 20 -20 11 0 23 -7 26
-15 4 -8 15 -15 25 -15 10 0 19 -4 19 -10 0 -5 -6 -10 -14 -10 -8 0 -21 -3
-30 -6 -9 -3 -24 5 -38 22 -27 32 -112 74 -150 74 -15 0 -29 4 -32 9 -3 5 17
46 45 92 28 46 60 101 70 122 11 21 34 46 50 55 23 14 29 23 27 46 l-3 28 67
3 c37 2 72 6 78 10 16 10 12 35 -7 42 -10 4 -25 15 -33 26 -19 22 -50 13 -50
-15 0 -11 -5 -18 -11 -16 -12 4 -11 10 8 56 9 23 20 32 36 32 25 0 47 17 47
37 0 7 -6 13 -14 13 -24 0 -26 15 -9 59 18 46 35 52 50 18 8 -18 7 -28 -8 -46
-17 -21 -18 -26 -6 -40 8 -9 17 -24 20 -34 13 -36 32 -11 32 41 -1 56 11 65
49 37 17 -13 17 -15 2 -31 -23 -23 -15 -38 22 -42 30 -3 38 4 33 32 -1 4 10
24 25 43 23 31 25 39 15 55 -11 18 -9 24 16 50 20 21 34 27 51 23 27 -7 41 18
22 40 -17 21 -27 19 -35 -6 -5 -16 -12 -19 -30 -15 -16 4 -32 -2 -53 -19 -37
-31 -42 -31 -42 0 0 14 -5 34 -11 44 -10 15 -6 26 21 65 26 39 36 47 55 42 19
-5 27 1 46 32 13 20 24 44 25 52 2 8 6 25 10 38 6 21 4 22 -50 22 -69 0 -71
10 -20 107 49 92 54 97 69 76 11 -15 16 -16 38 -4 14 7 30 11 35 7 18 -11 40
5 62 41 21 35 21 63 0 63 -6 0 -15 -11 -20 -25 l-10 -26 -36 36 c-32 33 -35
40 -25 61 13 29 41 32 41 4 0 -28 22 -25 54 9 34 36 31 64 -8 71 -16 3 -31 10
-33 16 -5 16 35 61 44 49 5 -5 18 -18 30 -29 19 -15 25 -16 38 -6 8 7 15 20
15 29 0 25 -37 61 -55 55 -29 -11 -15 36 47 166 18 36 41 79 53 95 12 17 60
109 107 206 80 164 87 176 117 182 20 4 35 15 42 31 15 32 44 41 169 54 8 1 2
-9 -15 -22z m-1420 -16 c3 -11 12 -20 20 -20 7 0 16 -11 19 -25 5 -18 13 -25
31 -25 13 0 26 -4 30 -9 9 -15 -14 -24 -29 -12 -10 8 -16 7 -26 -3 -9 -12 -9
-20 4 -37 14 -20 12 -26 -26 -83 -23 -34 -100 -139 -172 -235 -72 -95 -140
-186 -151 -201 -23 -32 -75 -101 -87 -114 -4 -5 -7 22 -5 60 2 64 -1 74 -26
107 -16 21 -43 43 -61 51 -41 17 -47 26 -49 76 -1 38 4 45 111 153 62 63 112
118 112 124 0 5 40 52 88 103 64 66 94 91 108 88 16 -3 11 -13 -33 -58 -29
-29 -53 -56 -53 -60 0 -4 -33 -40 -72 -81 -98 -100 -232 -256 -236 -274 -6
-27 20 -15 62 28 22 23 91 100 151 171 124 145 265 296 276 296 4 0 11 -9 14
-20z m3498 3 c4 -3 0 -14 -8 -24 -9 -9 -17 -36 -18 -60 -2 -39 1 -44 20 -47
19 -3 21 -7 13 -22 -8 -15 -5 -24 15 -44 17 -17 25 -36 25 -59 0 -19 6 -40 14
-46 15 -12 24 -76 31 -211 5 -96 29 -374 54 -610 11 -102 21 -214 23 -250 3
-65 3 -65 -25 -68 -41 -5 -34 -45 8 -52 28 -5 51 -40 26 -40 -6 0 -26 -14 -43
-31 -18 -17 -48 -37 -66 -45 -41 -17 -40 -44 1 -55 22 -6 30 -3 40 12 6 10 22
19 35 19 20 0 22 -3 16 -40 -5 -30 -2 -50 11 -74 21 -39 14 -81 -15 -89 -14
-4 -18 -10 -13 -22 4 -11 -1 -23 -14 -34 -19 -15 -33 -54 -52 -142 -4 -19 -15
-50 -24 -69 -25 -48 -22 -62 10 -58 19 2 29 10 31 23 5 24 41 65 58 65 6 0 14
-16 16 -35 4 -34 -4 -46 -17 -25 -11 17 -24 11 -31 -15 -4 -14 -1 -32 6 -40 7
-8 9 -22 6 -31 -6 -16 -8 -16 -24 0 -10 9 -26 16 -36 16 -26 0 -56 19 -56 35
0 26 -40 17 -57 -13 -19 -33 -75 -62 -96 -50 -28 15 -34 188 -6 188 5 0 11
-11 15 -25 3 -14 10 -25 15 -25 5 0 9 -11 9 -24 0 -37 17 -40 51 -12 17 14 39
26 50 26 22 0 36 27 22 41 -7 7 -19 6 -36 -2 -23 -10 -30 -9 -45 4 -10 10 -23
17 -29 17 -6 0 -13 7 -17 15 -3 8 -15 15 -26 15 -17 0 -21 5 -18 28 3 24 7 27
36 24 18 -1 43 5 55 13 24 16 77 21 77 6 0 -5 -13 -19 -30 -31 -39 -28 -38
-47 3 -58 38 -11 57 1 57 34 0 13 7 27 16 32 13 7 14 15 5 49 -6 23 -9 47 -6
55 3 8 -1 21 -9 28 -13 10 -17 9 -21 -4 -17 -53 -14 -50 -33 -32 -26 23 -35
20 -54 -15 -15 -25 -21 -28 -37 -19 -11 5 -29 10 -41 10 l-22 0 7 473 c5 353
3 523 -7 672 -7 110 -13 261 -13 335 1 117 4 143 24 193 16 40 30 61 47 67 14
6 24 18 24 29 0 10 7 24 16 32 9 7 13 21 10 34 -8 33 28 78 47 58z m-2627 -65
c4 -6 2 -14 -4 -16 -21 -7 -14 -50 8 -54 12 -2 30 -18 42 -36 l21 -33 -22 -6
c-20 -5 -40 -48 -27 -60 3 -3 0 -13 -6 -21 -7 -8 -13 -40 -13 -71 -1 -56 -23
-112 -68 -173 -25 -33 -42 -35 -57 -7 -8 15 -8 24 0 34 16 19 2 38 -23 31 -12
-3 -29 2 -39 11 -25 23 -49 2 -31 -27 11 -16 9 -20 -7 -25 -25 -8 -26 -43 -3
-52 10 -4 28 -20 41 -35 13 -15 31 -28 40 -29 26 -2 -28 -17 -63 -18 -20 -1
-36 7 -50 26 -13 15 -27 23 -33 19 -17 -10 -15 -36 3 -42 8 -4 15 -14 15 -24
0 -11 5 -22 10 -25 19 -12 10 -35 -16 -45 -21 -8 -25 -15 -21 -36 3 -20 -1
-27 -20 -35 -13 -5 -36 -8 -51 -7 -15 1 -40 1 -56 0 -27 -2 -28 -4 -22 -36 8
-44 -10 -58 -34 -26 -11 15 -23 21 -34 17 -19 -8 -21 -33 -3 -40 6 -3 -6 -6
-28 -6 -31 -1 -47 -8 -77 -38 -22 -22 -38 -31 -38 -23 1 21 62 121 80 131 23
11 149 41 198 47 45 4 66 27 41 43 -7 4 -32 6 -54 3 -32 -4 -46 0 -69 19 -32
28 -32 30 39 130 27 38 47 57 61 57 30 0 71 47 56 62 -7 7 -12 19 -12 28 0 9
44 84 98 166 55 82 104 160 111 172 10 18 19 23 37 19 19 -3 29 2 41 19 17 27
28 30 39 12z m1175 -31 c12 -16 -4 -57 -33 -86 -31 -31 -30 -56 3 -48 30 8 51
-15 44 -46 -8 -31 -21 -34 -46 -11 -19 17 -49 13 -49 -6 0 -6 13 -16 29 -21
23 -8 30 -18 35 -51 6 -34 3 -45 -15 -64 -21 -22 -24 -23 -45 -9 -13 8 -30 15
-39 15 -23 0 -28 23 -10 56 20 40 20 76 -2 72 -17 -3 -41 -57 -52 -118 -5 -26
-12 -36 -29 -38 -31 -5 -29 6 23 155 24 70 49 147 55 170 l11 43 57 -2 c31 -2
60 -6 63 -11z m-952 -46 c13 -8 13 -13 0 -37 -8 -15 -18 -37 -24 -48 -5 -11
-29 -57 -52 -101 -71 -139 -109 -215 -187 -385 -42 -91 -83 -177 -90 -192 -74
-141 -246 -493 -312 -638 -21 -47 -43 -88 -48 -92 -5 -3 -20 1 -33 9 -23 15
-24 15 -30 -6 -8 -32 -28 -19 -26 18 1 22 12 43 35 65 18 18 44 55 57 82 13
27 30 60 38 74 8 14 30 59 49 100 57 121 95 194 110 211 7 8 41 71 75 140 34
68 72 138 84 154 12 17 55 101 95 187 40 87 88 183 106 213 19 31 34 62 34 70
0 14 65 150 83 173 11 14 17 15 36 3z m-709 -53 c0 -4 12 -19 28 -33 l27 -26
-24 -18 c-20 -16 -23 -23 -17 -56 6 -31 4 -40 -13 -52 -12 -8 -21 -19 -21 -24
0 -6 -33 -59 -74 -117 -40 -59 -83 -127 -96 -151 -12 -24 -45 -75 -74 -115
-29 -39 -87 -124 -130 -188 -42 -65 -81 -118 -86 -118 -13 0 -13 3 5 36 8 16
15 38 15 49 0 23 -46 95 -61 95 -15 0 -23 -30 -10 -43 17 -17 13 -57 -6 -63
-10 -3 -25 -9 -35 -14 -23 -12 -49 17 -27 31 8 5 20 9 27 9 17 0 15 25 -3 40
-10 8 -12 17 -5 29 5 10 5 23 0 31 -7 12 -15 11 -44 -5 -40 -22 -45 -39 -16
-55 27 -14 25 -30 -3 -30 -18 0 -43 12 -75 36 -2 1 11 23 30 48 22 30 41 45
56 46 12 0 31 5 41 12 15 9 22 8 36 -5 9 -9 21 -17 26 -17 5 0 9 -9 9 -19 0
-26 10 -31 38 -20 29 11 28 27 -3 39 -18 7 -24 16 -22 32 2 20 -2 23 -37 23
-68 0 -68 0 124 254 14 18 43 59 65 91 118 169 169 230 193 230 14 0 32 11 43
24 16 20 27 24 69 23 27 -1 50 -5 50 -9z m-277 -101 c-4 -7 -39 -54 -77 -105
-39 -52 -91 -122 -116 -157 -126 -175 -229 -305 -243 -305 -35 0 6 78 89 167
14 15 42 52 61 81 19 29 61 81 92 115 31 34 81 96 111 137 30 41 59 78 64 82
14 10 28 -1 19 -15z m2177 -149 c28 10 30 9 30 -12 0 -26 43 -61 61 -50 6 3 8
17 5 30 -5 19 -1 27 19 36 34 15 40 6 22 -34 -8 -18 -18 -52 -21 -75 -5 -36
-3 -44 15 -53 20 -11 20 -13 4 -30 -21 -23 -13 -50 15 -50 11 0 20 -7 20 -15
0 -8 -9 -15 -19 -15 -31 0 -36 -21 -10 -42 l24 -19 -22 -16 c-27 -18 -29 -35
-8 -53 11 -9 13 -16 6 -23 -6 -6 -8 -29 -5 -51 4 -24 -1 -67 -10 -101 -23 -91
-54 -289 -76 -500 -21 -198 -24 -220 -42 -297 -8 -33 -18 -49 -35 -57 -32 -15
-53 -14 -53 2 0 7 -5 18 -11 24 -15 15 -73 -14 -89 -43 -10 -17 -18 -20 -43
-15 -28 6 -32 10 -29 37 4 36 -18 59 -47 49 -14 -4 -20 -17 -23 -48 -3 -23
-11 -64 -19 -90 -13 -48 -8 -76 18 -84 14 -5 27 33 24 74 -2 36 17 54 31 29
11 -19 37 -21 63 -3 11 8 42 19 69 26 40 10 51 10 57 -1 22 -34 1 -57 -23 -26
-16 21 -18 22 -34 6 -15 -15 -14 -19 12 -52 16 -20 32 -36 37 -36 4 0 7 -4 7
-9 0 -4 -18 -8 -39 -8 -26 0 -38 4 -35 11 3 7 -9 25 -25 40 -26 25 -33 27 -46
16 -9 -8 -15 -25 -13 -39 2 -20 11 -28 36 -36 24 -7 32 -15 32 -33 0 -20 4
-23 32 -20 42 4 52 -27 14 -42 -14 -5 -26 -16 -26 -24 0 -9 -12 -27 -27 -41
-23 -20 -38 -25 -80 -25 -46 0 -53 -3 -53 -20 0 -16 7 -20 35 -20 25 0 37 -6
46 -21 10 -20 9 -21 -22 -16 -110 18 -119 19 -124 4 -7 -17 55 -127 73 -127
21 0 25 29 8 55 -16 24 -16 25 4 25 11 0 31 -7 43 -15 19 -12 22 -22 19 -51
-4 -28 -12 -40 -38 -56 -41 -24 -43 -45 -8 -58 28 -11 44 -6 44 14 0 8 6 19
14 25 7 6 16 25 20 41 6 32 26 39 46 15 16 -20 5 -45 -20 -45 -23 0 -25 -12
-7 -40 15 -25 -2 -40 -45 -40 -21 0 -29 -6 -34 -25 -10 -39 -32 -30 -41 18 -9
39 -11 42 -41 41 -37 -2 -41 8 -10 28 21 14 22 16 6 40 -19 29 -77 45 -107 28
-41 -22 -52 -1 -31 56 l11 27 24 -23 c23 -22 55 -22 55 -1 0 28 -21 61 -39 61
-11 0 -22 4 -26 9 -3 5 4 49 16 98 11 48 27 117 34 153 7 36 22 99 34 140 12
41 30 122 41 180 11 58 25 119 30 135 5 17 14 57 19 90 16 105 40 237 47 257
3 11 12 54 19 96 43 259 95 485 116 507 12 13 16 29 12 43 -3 12 -1 22 5 22 6
0 18 7 27 16 15 15 15 18 -2 36 -17 19 -17 20 18 13 26 -5 39 -2 49 10 12 14
12 18 -1 26 -8 5 -20 9 -27 9 -23 0 -53 20 -46 31 4 6 11 6 20 -2 10 -8 22 -8
44 -1z m1014 -120 c20 -208 27 -413 22 -683 -5 -255 -6 -527 -2 -717 1 -55 -9
-68 -46 -61 l-27 5 6 382 c8 458 8 457 -2 818 -6 225 -5 291 5 303 25 30 38
16 44 -47z m578 17 c-2 -18 3 -32 17 -41 35 -25 60 -122 101 -394 4 -30 19
-120 33 -200 14 -80 27 -160 30 -178 4 -37 -8 -53 -18 -23 -5 15 -17 20 -61
23 -31 1 -61 0 -66 -3 -17 -11 -1 -39 21 -39 11 0 24 -7 29 -16 6 -10 23 -17
41 -18 26 -1 36 -8 54 -39 22 -39 22 -39 2 -53 -19 -14 -20 -13 -23 13 -5 38
-19 53 -51 53 -15 0 -36 7 -49 15 -16 12 -26 13 -42 5 -15 -8 -20 -8 -20 2 0
7 -8 60 -16 118 -37 254 -57 525 -40 560 8 16 10 43 5 75 -7 51 -4 84 11 120
4 11 11 28 14 38 9 28 31 14 28 -18z m-1096 -15 c22 0 27 -20 10 -39 -13 -14
-14 -24 -6 -45 5 -14 8 -45 5 -69 -2 -23 -7 -123 -10 -222 -2 -99 -11 -247
-20 -330 -8 -82 -17 -202 -20 -265 -7 -155 -15 -229 -26 -235 -5 -3 -13 -23
-19 -44 -7 -29 -17 -41 -35 -45 -13 -3 -29 -15 -35 -26 -13 -24 -36 -26 -44
-5 -8 23 -46 1 -46 -26 0 -12 -8 -23 -20 -26 -12 -3 -20 -14 -20 -27 0 -12 -5
-27 -11 -33 -18 -18 0 -35 31 -28 23 5 32 2 42 -14 17 -28 46 -27 50 2 2 16
10 22 28 22 35 0 39 -31 6 -46 -42 -19 -46 -59 -5 -59 27 0 24 -19 -5 -30 -36
-13 -40 -29 -11 -40 26 -10 27 -11 11 -35 -9 -13 -16 -34 -16 -45 0 -12 -10
-25 -25 -32 -27 -12 -32 -37 -15 -69 15 -27 24 -24 37 12 15 39 33 29 33 -19
0 -39 -11 -64 -26 -61 -23 4 -35 -3 -49 -31 -15 -30 -13 -50 5 -50 5 0 20 16
34 36 27 40 35 35 29 -18 -4 -32 -9 -38 -29 -38 -32 0 -87 -55 -88 -89 -1 -20
-7 -27 -26 -29 -30 -5 -52 -21 -44 -33 9 -14 64 -10 70 5 3 8 14 16 24 19 10
2 24 17 31 33 8 16 22 30 32 32 15 3 17 -2 11 -40 -8 -53 -18 -66 -52 -70 -16
-2 -27 -9 -27 -18 0 -19 41 -26 60 -10 20 17 17 -99 -3 -123 -13 -14 -13 -21
-2 -41 10 -19 10 -68 1 -253 -7 -125 -14 -252 -17 -280 -5 -52 -18 -65 -41
-42 -8 8 -17 7 -31 -2 -26 -16 -40 -4 -25 20 21 34 -36 68 -65 39 -9 -9 -16
-8 -29 5 -13 11 -29 14 -60 10 -35 -5 -46 -12 -63 -40 -11 -19 -20 -41 -20
-49 0 -8 -7 -14 -15 -14 -20 0 -19 16 6 146 11 60 31 168 44 239 12 72 28 143
34 158 6 16 11 37 11 49 0 24 56 98 75 98 7 0 18 6 25 14 6 8 26 16 43 18 24
2 32 8 32 23 0 17 -6 20 -44 18 -38 -2 -43 0 -38 17 6 25 -9 36 -28 20 -8 -6
-18 -9 -24 -6 -15 10 -1 44 26 61 27 18 29 60 3 60 -18 0 -16 73 5 175 7 36
18 110 25 165 6 55 20 152 30 215 19 113 32 195 70 435 11 66 24 161 30 210 6
50 13 97 15 105 3 8 11 58 19 110 64 417 68 435 87 456 23 25 24 32 2 56 -14
15 -14 18 -1 18 17 0 78 55 78 70 0 14 -13 13 -28 -2 -9 -9 -15 -9 -24 0 -10
10 -6 18 17 37 29 23 30 23 39 4 5 -10 15 -19 22 -19z m1429 2 c16 -26 25 -31
45 -28 38 7 59 -9 31 -23 -39 -21 -26 -46 22 -42 18 2 24 -24 7 -34 -17 -10
-11 -54 9 -64 11 -6 21 -26 25 -52 4 -22 15 -57 25 -77 10 -21 21 -50 24 -67
3 -16 22 -106 42 -200 29 -140 33 -174 24 -192 -10 -19 -9 -26 4 -41 23 -26
21 -33 -7 -26 -15 3 -34 -1 -49 -11 -38 -25 -71 -16 -77 20 -7 43 -34 39 -38
-5 -8 -73 -4 -222 6 -232 7 -7 16 -7 29 0 11 6 36 7 61 2 30 -5 45 -4 53 6 18
21 1 34 -46 34 -35 0 -48 5 -65 27 -21 27 -22 44 -2 51 7 2 12 -7 12 -22 0
-30 13 -40 46 -32 28 7 32 33 7 52 -17 12 -16 13 7 22 29 11 40 7 40 -14 0
-17 31 -19 49 -1 14 13 14 16 -3 -116 -6 -42 -4 -48 11 -45 9 2 20 14 23 28 6
24 6 24 12 3 9 -32 -20 -110 -43 -116 -10 -3 -19 -10 -19 -16 0 -17 29 -13 60
9 15 11 30 17 34 13 12 -12 6 -41 -10 -47 -9 -4 -14 -15 -12 -30 1 -13 -3 -30
-10 -39 -10 -12 -10 -18 3 -31 19 -18 31 -20 40 -6 12 20 21 9 17 -21 -4 -24
0 -31 17 -36 24 -6 28 -28 6 -37 -8 -3 -15 -16 -15 -28 0 -15 -12 -31 -35 -46
-21 -13 -35 -30 -35 -42 0 -24 13 -25 44 -5 21 14 25 14 39 0 9 -8 29 -18 46
-21 27 -6 32 -13 49 -73 10 -36 24 -88 29 -116 6 -27 29 -123 52 -213 34 -130
40 -167 30 -178 -16 -20 8 -95 33 -102 20 -5 34 -47 44 -133 7 -64 1 -72 -46
-59 -41 12 -78 -6 -116 -55 -15 -19 -37 -38 -50 -41 -12 -3 -30 -15 -40 -25
-17 -19 -17 -20 4 -35 27 -19 21 -33 -12 -27 -34 7 -44 -16 -17 -38 19 -15 20
-21 9 -38 -20 -33 -38 -34 -38 -3 0 15 -5 43 -10 62 -6 19 -24 114 -40 210
-17 96 -42 221 -56 277 -14 57 -23 111 -19 122 3 11 0 29 -7 40 -11 18 -9 23
9 41 25 23 21 50 -8 50 -20 0 -39 35 -39 71 0 16 5 19 19 14 28 -9 41 21 37
89 -4 65 -10 75 -34 59 -11 -7 -17 -23 -16 -47 1 -42 -8 -46 -24 -11 -17 38
-15 51 13 79 14 14 25 32 25 41 0 22 -27 30 -46 14 -13 -10 -17 -10 -25 2 -5
8 -9 24 -10 37 -1 12 -2 28 -3 35 -1 7 8 11 22 9 17 -3 22 2 22 18 0 18 -4 21
-24 16 -30 -7 -34 -1 -42 57 l-6 44 31 -5 c22 -3 31 -9 27 -18 -5 -13 40 -64
56 -64 18 0 17 23 -3 57 -17 31 -19 43 -10 66 6 16 18 27 30 27 21 0 45 23 34
33 -19 20 -87 -7 -102 -40 -12 -27 -51 -31 -51 -7 0 9 -7 22 -16 29 -19 14
-33 115 -16 115 30 0 40 -12 35 -44 -5 -33 15 -66 40 -66 17 0 60 67 52 80 -4
7 -19 9 -35 5 -36 -8 -41 1 -30 51 7 29 6 42 -4 53 -17 17 -36 6 -36 -20 0
-12 -7 -19 -20 -19 -22 0 -35 20 -43 70 -3 19 -20 116 -37 215 -17 99 -35 214
-41 255 -5 41 -20 120 -33 175 -20 86 -22 102 -10 116 19 21 18 36 -3 48 -14
7 -15 12 -4 24 21 26 10 71 -18 75 l-23 4 22 15 c20 14 22 22 17 63 -5 39 -2
51 13 65 14 13 18 25 13 43 -8 34 16 25 42 -16z m1086 -85 c5 -21 28 -76 50
-122 21 -46 39 -90 39 -98 0 -17 41 -127 63 -172 33 -66 61 -131 82 -192 12
-34 28 -69 34 -77 7 -8 10 -20 6 -26 -11 -17 -35 8 -35 36 0 13 -5 24 -10 24
-15 0 -64 110 -98 220 -17 52 -46 133 -66 180 -20 46 -36 88 -36 92 0 5 -18
54 -40 109 -22 56 -40 106 -40 113 0 20 40 -48 51 -87z m-2301 38 c6 -8 9 -18
6 -23 -2 -4 6 -21 19 -38 18 -22 26 -26 35 -18 8 8 9 14 1 18 -6 4 -11 16 -11
27 0 16 6 20 28 17 27 -3 30 -11 17 -55 -5 -16 -2 -23 14 -28 12 -3 21 -12 21
-20 0 -7 11 -27 25 -43 18 -21 21 -32 13 -40 -8 -8 -8 -18 -1 -35 7 -14 7 -30
2 -39 -6 -10 -4 -25 4 -40 18 -36 11 -855 -8 -954 -4 -17 -10 -20 -30 -16 -22
4 -25 1 -25 -22 0 -21 -5 -26 -25 -26 -14 0 -27 -6 -29 -12 -14 -52 -22 -71
-31 -67 -5 2 -8 13 -7 25 2 11 -4 27 -12 34 -9 7 -16 18 -16 24 0 7 -5 17 -12
24 -15 15 -48 -12 -48 -38 0 -11 -10 -20 -25 -22 l-25 -5 5 126 c4 69 10 162
15 206 5 44 12 121 16 170 3 50 10 128 15 175 5 47 9 140 9 207 0 68 4 124 10
128 5 3 7 19 3 35 -3 18 -1 30 5 30 16 0 23 31 11 46 -9 11 -8 18 0 28 9 11 9
20 2 35 -9 17 -7 24 15 45 25 22 26 27 15 55 -7 16 -10 35 -6 40 3 6 -1 14 -9
17 -17 6 -23 44 -7 44 5 0 14 -7 21 -15z m1450 -22 c6 -21 15 -63 20 -93 5
-30 17 -86 29 -125 11 -38 29 -115 40 -171 11 -55 28 -120 37 -145 17 -46 30
-91 43 -149 10 -40 59 -226 67 -252 4 -14 0 -18 -21 -18 -19 0 -28 7 -36 28
-20 50 -119 465 -119 496 0 11 -4 33 -9 50 -6 17 -17 63 -26 101 -9 39 -23 99
-32 135 -29 121 -23 245 7 143z m156 16 c4 -7 22 -9 48 -5 36 6 39 5 22 -7
-23 -17 -18 -49 12 -62 12 -5 22 -19 22 -30 0 -11 8 -27 18 -36 17 -14 28 -53
75 -250 9 -36 38 -131 65 -210 69 -200 112 -334 112 -348 0 -18 -20 -13 -39
11 -18 21 -59 20 -46 -2 11 -17 -54 -100 -90 -114 -10 -3 -15 -14 -13 -28 4
-31 26 -34 39 -4 14 30 44 34 53 9 7 -17 -13 -38 -61 -64 -34 -18 -50 -5 -62
52 -10 45 -9 54 4 61 24 14 18 38 -10 38 -18 0 -25 5 -25 19 0 11 5 23 10 26
18 11 10 35 -15 45 -14 5 -25 11 -25 14 0 16 -74 296 -85 323 -8 19 -21 69
-30 111 -9 42 -25 113 -36 158 -15 61 -17 88 -9 108 8 22 6 29 -10 43 -19 17
-19 18 6 44 28 30 25 49 -8 49 -21 0 -20 2 7 30 29 31 59 39 71 19z m-1971
-17 c3 -11 1 -50 -5 -88 -14 -94 -18 -121 -25 -179 -3 -27 -10 -67 -16 -88
-14 -53 -56 -324 -94 -612 -26 -203 -25 -199 -65 -205 -20 -4 -41 -9 -47 -13
-19 -12 -25 10 -14 50 10 39 29 140 56 303 9 52 20 120 26 150 5 30 14 84 19
120 6 36 14 88 20 115 5 28 18 133 29 235 11 102 23 193 26 202 6 15 20 20 72
27 6 0 14 -7 18 -17z m294 -27 c1 -22 -4 -139 -13 -260 -8 -121 -20 -296 -26
-390 -6 -93 -16 -210 -21 -260 -6 -49 -12 -142 -14 -205 -7 -215 -34 -555 -55
-699 -12 -76 -37 -279 -50 -396 -5 -44 -13 -111 -19 -150 -5 -38 -13 -131 -16
-205 -13 -312 -14 -317 -42 -323 -35 -7 -39 13 -20 112 9 47 22 140 27 206 6
66 15 145 20 175 5 30 11 93 14 140 3 47 15 180 26 295 11 116 25 296 30 400
15 286 40 633 50 694 6 30 10 93 10 140 0 47 4 140 10 206 6 66 14 215 19 332
5 116 12 216 16 223 4 6 17 10 28 8 18 -2 23 -11 26 -43z m-1461 -7 c7 -7 12
-25 12 -40 0 -23 4 -28 24 -28 34 0 40 -16 16 -40 -23 -23 -25 -39 -9 -73 9
-21 4 -47 -32 -158 -24 -74 -44 -136 -46 -138 -1 -2 -17 -4 -35 -5 -28 -1 -33
-5 -36 -29 -4 -37 -29 -46 -48 -18 -17 24 -67 28 -109 9 -41 -19 -46 0 -21 72
13 36 45 127 71 203 44 127 52 141 85 163 20 13 44 40 53 59 18 37 51 47 75
23z m672 -7 c0 -21 -23 -132 -70 -331 -16 -69 -36 -163 -45 -210 -9 -47 -20
-105 -25 -130 -6 -25 -15 -80 -20 -123 -5 -43 -12 -83 -16 -88 -3 -6 -14 -54
-23 -106 -17 -98 -24 -110 -51 -93 -12 8 -12 20 4 97 10 48 22 111 27 138 9
47 25 112 69 280 10 39 23 102 30 140 7 39 19 93 26 122 8 28 18 103 23 167 6
63 15 124 21 136 14 26 50 27 50 1z m-236 -16 c9 -14 23 -25 31 -25 11 0 14
-7 9 -24 -3 -13 -1 -40 4 -59 7 -23 6 -52 0 -82 -7 -34 -7 -53 2 -69 11 -22 8
-43 -31 -211 -5 -22 -16 -74 -24 -116 -7 -41 -23 -109 -35 -150 -11 -41 -25
-107 -30 -147 -5 -40 -14 -81 -20 -92 -10 -18 -14 -19 -35 -7 -14 7 -35 33
-47 57 -17 33 -30 46 -48 48 -14 2 -33 11 -42 19 -16 14 -23 14 -65 1 -35 -11
-48 -21 -48 -34 0 -15 7 -19 28 -17 24 2 27 -1 22 -18 -9 -28 3 -69 20 -69 7
0 21 10 29 22 14 19 14 25 1 44 -13 20 -12 23 1 28 21 8 34 -1 34 -25 0 -10
10 -29 23 -41 12 -13 27 -32 32 -43 7 -14 22 -21 49 -23 29 -3 36 -7 32 -18
-3 -9 -6 -21 -6 -27 0 -7 -7 -4 -14 6 -13 17 -17 17 -44 3 -20 -10 -31 -25
-36 -46 -5 -30 -7 -31 -28 -16 -24 17 -48 6 -48 -21 0 -11 8 -14 29 -11 23 3
31 0 35 -16 10 -36 7 -65 -8 -73 -8 -4 -15 -17 -17 -27 -6 -30 -26 -30 -33 0
-5 20 -3 30 8 36 25 14 20 40 -6 36 -16 -2 -24 -11 -26 -28 -2 -14 -8 -29 -13
-35 -5 -5 -9 -19 -9 -31 0 -12 -11 -29 -26 -39 -16 -11 -23 -22 -20 -32 4 -10
-3 -26 -16 -40 -19 -20 -20 -27 -10 -41 7 -9 15 -25 18 -34 3 -9 12 -19 20
-22 32 -12 11 -26 -41 -26 -51 0 -55 -2 -55 -24 0 -15 -7 -26 -20 -29 -11 -3
-20 -13 -20 -22 0 -13 8 -16 38 -13 32 3 37 0 40 -19 2 -12 12 -25 23 -28 21
-7 25 -20 9 -30 -5 -3 -10 -15 -10 -26 0 -26 -26 -35 -56 -18 -30 16 -57 3
-62 -29 -5 -29 -30 -48 -44 -34 -16 16 -45 15 -51 0 -8 -24 4 -38 29 -32 18 5
24 2 24 -9 0 -30 22 -29 56 4 19 18 34 39 34 45 0 23 21 26 42 8 19 -18 20
-18 34 1 8 10 14 22 14 27 0 4 7 8 15 8 23 0 19 -63 -5 -85 -13 -12 -18 -25
-14 -40 6 -26 -5 -38 -25 -26 -9 6 -10 11 -2 15 15 10 14 22 -5 40 -24 24 -41
19 -47 -14 -8 -38 -41 -47 -92 -26 -51 22 -81 20 -140 -9 -57 -28 -65 -30 -65
-12 0 7 23 23 51 37 54 25 69 44 50 63 -9 9 -16 9 -31 -1 -25 -16 -50 -15 -50
1 0 22 15 36 29 28 7 -5 29 -1 52 11 24 11 48 16 64 12 33 -8 57 11 49 41 -3
13 -1 26 5 29 16 10 -17 56 -40 56 -26 0 -24 -24 4 -43 29 -20 18 -30 -16 -14
-39 18 -40 32 -6 82 30 44 31 65 4 65 -21 0 -55 -50 -55 -82 0 -17 -6 -31 -16
-35 -12 -4 -14 -14 -10 -34 5 -25 2 -29 -15 -29 -16 0 -19 4 -14 18 8 20 32
106 50 180 7 29 20 61 30 72 16 18 19 18 41 3 13 -8 24 -24 24 -35 0 -13 6
-18 17 -16 23 4 27 23 7 42 -14 15 -15 19 -1 40 12 17 22 22 41 19 34 -7 34
16 2 47 -29 26 -49 22 -68 -16 -20 -43 -42 -44 -33 -3 11 51 24 71 42 65 9 -4
25 2 36 11 15 13 21 15 24 6 3 -7 11 -13 19 -13 8 0 19 -12 24 -26 13 -32 33
-26 40 12 3 19 12 30 25 32 28 5 39 18 32 36 -5 14 -11 14 -45 2 -48 -17 -90
-21 -117 -11 -11 4 -26 9 -32 11 -9 2 -10 10 -4 26 7 19 15 22 42 20 18 -1 38
-7 45 -13 21 -18 86 36 67 55 -4 3 -17 6 -29 6 -13 0 -28 9 -35 21 l-11 21
-22 -21 c-12 -12 -25 -18 -29 -15 -11 11 12 43 42 59 40 20 47 43 16 55 -17 6
-23 14 -19 25 10 24 47 14 62 -17 17 -36 28 -35 48 3 15 31 15 32 -17 65 -22
23 -39 32 -51 28 -10 -3 -18 -1 -18 5 0 5 23 81 51 168 28 87 63 203 79 258
16 55 38 125 49 156 11 30 33 102 50 159 23 79 36 108 57 125 21 17 26 28 22
48 -5 27 5 36 17 17 9 -14 46 -12 75 5 33 19 35 19 54 -10z m-229 -54 c5 -10
-23 -109 -104 -366 -42 -132 -60 -190 -107 -350 -15 -49 -31 -94 -35 -99 -13
-14 -59 11 -59 32 0 9 6 26 13 37 8 11 21 43 30 70 9 28 28 84 42 125 100 297
165 505 165 529 0 10 3 21 7 24 10 10 41 8 48 -2z m-405 -38 c-1 -10 -9 -36
-20 -58 -11 -22 -19 -46 -20 -53 0 -7 -10 -38 -21 -70 -12 -31 -32 -86 -44
-122 -13 -36 -29 -65 -37 -65 -23 0 -20 60 5 121 13 33 41 105 62 162 30 78
43 102 57 102 11 0 18 -7 18 -17z m-1013 -18 c3 -9 -1 -23 -9 -33 -18 -21
-128 -219 -128 -231 0 -4 -9 -16 -20 -26 -11 -10 -22 -27 -26 -37 -9 -28 -133
-220 -152 -235 -11 -9 -19 -10 -29 -2 -36 31 -5 92 193 374 149 213 158 222
171 190z m5717 -5 c20 -7 45 -50 119 -197 51 -103 110 -214 130 -245 40 -61
56 -112 39 -122 -6 -3 -13 -2 -17 4 -10 17 -34 11 -46 -11 -9 -18 -7 -26 17
-50 15 -16 23 -29 18 -29 -6 0 -21 11 -34 25 -26 28 -65 33 -74 9 -7 -17 23
-63 41 -64 13 0 33 -31 33 -49 0 -20 -47 -11 -63 12 l-15 22 -13 -28 c-11 -25
-11 -30 4 -38 10 -6 17 -22 17 -38 0 -16 7 -34 15 -41 19 -16 19 -30 -1 -30
-8 0 -22 17 -30 38 -8 20 -33 73 -54 117 -60 123 -83 191 -75 225 6 26 2 35
-24 59 -23 21 -31 38 -31 63 0 18 -7 42 -16 53 -9 12 -12 30 -8 47 4 21 2 28
-9 28 -8 0 -20 7 -27 15 -11 13 -10 21 1 41 13 24 12 28 -15 49 l-29 23 17 44
c31 76 64 93 130 68z m-1864 -89 c8 -33 22 -106 66 -351 9 -52 20 -113 24
-135 42 -229 60 -341 56 -351 -7 -18 -46 -5 -46 16 0 10 7 20 15 24 23 8 18
25 -11 36 -24 10 -26 14 -20 50 4 25 2 40 -4 40 -17 0 -31 49 -46 160 -14 104
-36 235 -74 440 -11 58 -20 116 -20 129 l0 24 25 -23 c14 -13 29 -40 35 -59z
m-3747 -79 c21 -23 13 -33 -24 -25 -23 4 -29 1 -34 -18 -7 -30 20 -99 39 -99
8 0 19 13 24 30 11 30 50 49 72 35 18 -11 5 -30 -21 -30 -21 0 -24 -4 -23 -32
1 -23 -2 -30 -12 -26 -20 7 -44 -15 -44 -41 0 -11 9 -34 20 -51 25 -38 25 -55
1 -55 -24 0 -45 -25 -37 -45 3 -8 17 -15 32 -15 31 0 28 -24 -4 -26 -33 -2
-52 -23 -52 -57 0 -37 -88 -217 -109 -224 -9 -3 -26 -10 -39 -16 -17 -8 -31
-8 -54 1 -17 6 -35 9 -39 6 -16 -10 -9 -43 10 -49 24 -7 35 -35 21 -49 -7 -7
-16 -7 -30 2 -27 16 -49 15 -56 -3 -7 -18 -60 -20 -71 -2 -4 6 -6 20 -5 30 4
22 -25 23 -48 2 -13 -12 -23 -13 -41 -6 -13 5 -36 12 -52 15 -39 9 -34 26 8
26 43 0 55 22 30 50 -21 23 -13 39 10 20 12 -10 20 -9 40 4 29 19 23 46 -11
46 -30 0 -30 15 -2 56 29 42 88 61 88 29 0 -9 9 -15 24 -15 47 0 44 39 -3 43
-31 2 -44 29 -26 53 15 18 15 18 26 1 8 -13 18 -17 35 -13 26 7 62 -8 80 -32
13 -18 44 -9 44 12 0 26 -56 64 -96 64 -54 0 -59 13 -25 68 16 27 60 102 98
168 37 65 74 121 81 123 7 3 22 -3 33 -13 24 -22 52 -10 57 24 3 22 37 52 58
52 6 0 18 -8 27 -18z m817 -267 c16 -19 25 -19 45 1 12 12 22 14 37 7 19 -8
19 -10 -12 -40 -25 -25 -39 -31 -59 -27 -16 4 -32 0 -38 -8 -19 -23 -33 -123
-22 -162 7 -25 6 -42 -1 -56 -17 -32 -35 -18 -32 24 2 31 0 36 -18 36 -11 0
-20 3 -20 6 0 17 35 111 46 125 8 8 14 20 14 26 0 19 30 83 39 83 5 0 14 -7
21 -15z m4549 -73 c12 -26 20 -32 47 -32 40 0 54 -27 19 -36 -18 -4 -25 -13
-25 -29 0 -17 -8 -25 -27 -30 -16 -3 -35 -13 -44 -21 -14 -12 -18 -12 -28 -1
-20 25 -24 72 -7 86 9 8 16 29 16 51 0 60 25 67 49 12z m136 -101 c12 -5 19
-17 20 -36 0 -17 8 -32 20 -39 30 -16 36 -28 29 -58 -4 -20 0 -29 14 -37 10
-5 34 -41 53 -78 19 -37 53 -99 75 -138 23 -39 45 -81 48 -93 6 -19 4 -22 -22
-22 -49 0 -89 -19 -100 -48 -18 -48 -21 -76 -13 -115 5 -20 6 -39 2 -42 -8 -5
-51 48 -51 63 0 5 -36 80 -80 166 -56 108 -79 164 -75 177 5 14 -1 27 -19 44
-23 21 -25 28 -19 75 6 50 5 52 -18 48 -29 -4 -40 29 -12 39 29 10 53 35 53
54 0 10 12 25 28 33 30 17 39 18 67 7z m-4805 -100 c0 -10 -9 -30 -20 -44 -36
-45 -27 -57 38 -57 73 0 98 21 89 75 -7 40 9 47 23 11 5 -13 15 -26 22 -29 7
-3 3 -6 -9 -6 -17 -1 -23 -7 -23 -25 0 -13 5 -26 12 -28 19 -7 1 -38 -22 -38
-11 0 -29 5 -39 12 -15 9 -23 9 -36 -2 -9 -7 -33 -14 -53 -14 -48 -1 -52 -30
-5 -34 20 -2 37 -11 43 -23 6 -10 20 -19 30 -19 11 0 20 -6 21 -12 0 -7 4 -44
9 -83 11 -80 11 -75 6 -135 -4 -45 -41 -163 -78 -250 l-20 -45 -24 29 -25 28
22 24 c26 28 19 41 -26 46 -25 2 -30 7 -27 28 1 14 6 26 10 28 28 10 36 22 26
39 -33 54 -104 65 -104 17 0 -18 6 -24 23 -24 l22 -1 -23 -19 c-17 -14 -29
-17 -41 -10 -26 14 -59 1 -65 -26 -4 -13 -15 -28 -26 -34 -21 -11 -27 -35 -11
-45 5 -3 21 0 35 6 32 15 34 13 41 -40 3 -26 17 -60 35 -84 17 -23 30 -47 30
-54 0 -18 25 -16 40 2 17 21 30 19 30 -5 0 -11 -11 -27 -26 -36 -25 -17 -26
-16 -62 19 -21 21 -43 37 -50 37 -7 0 -12 11 -12 25 0 46 -20 73 -67 87 -53
15 -53 14 16 167 27 58 54 124 61 146 27 82 80 187 98 192 28 7 46 41 31 59
-9 11 -6 27 16 77 15 34 32 68 38 75 14 18 27 15 27 -7z m2986 -96 c3 -8 13
-17 22 -20 10 -2 22 -21 28 -40 10 -31 9 -35 -7 -35 -10 0 -22 -8 -28 -17 -8
-15 -12 -16 -22 -5 -10 9 -10 15 -1 24 15 15 16 45 2 53 -16 10 -42 -16 -37
-37 3 -10 -2 -22 -10 -27 -25 -14 -8 -44 20 -37 16 4 29 -1 41 -15 13 -16 21
-18 29 -10 18 18 47 13 47 -8 0 -15 -7 -19 -32 -17 -26 1 -33 -3 -33 -18 0
-16 -7 -20 -35 -20 -25 -1 -36 -6 -38 -18 -3 -14 3 -18 26 -18 19 0 35 -8 45
-22 14 -20 18 -21 27 -8 6 8 8 23 6 33 -6 23 17 22 38 -2 26 -29 17 -57 -17
-53 -51 5 -24 -60 28 -70 12 -2 21 -13 23 -26 3 -20 -1 -22 -42 -22 -25 0 -46
-5 -46 -10 0 -20 40 -89 57 -99 15 -9 13 -10 -11 -11 -17 0 -40 -10 -52 -21
-19 -18 -28 -20 -51 -12 -62 21 -73 -15 -14 -42 26 -11 41 -25 43 -39 2 -13
10 -21 23 -21 16 0 20 7 20 32 0 40 3 42 56 45 44 3 68 -14 29 -20 -17 -3 -20
-11 -20 -48 0 -40 -2 -44 -23 -44 -30 0 -59 -30 -48 -49 6 -9 18 -11 40 -6 32
7 45 -10 16 -21 -17 -7 -20 -40 -5 -49 5 -3 7 -19 4 -34 -7 -35 12 -50 34 -27
14 14 15 20 4 37 -25 39 8 53 39 17 24 -29 24 -45 0 -57 -26 -14 -38 -81 -17
-97 21 -15 20 -39 -1 -76 -18 -30 -18 -31 5 -45 12 -9 22 -21 22 -29 0 -7 8
-18 19 -23 30 -17 33 -61 5 -93 -13 -16 -21 -34 -18 -41 8 -21 -42 -39 -66
-25 -16 10 -23 10 -36 -4 -14 -14 -15 -20 -5 -32 10 -12 18 -13 34 -5 16 9 23
8 32 -5 16 -21 20 -20 44 6 18 19 24 20 47 9 19 -8 24 -16 19 -29 -4 -9 -8
-32 -9 -51 -1 -18 -9 -39 -19 -46 -9 -7 -17 -22 -17 -34 0 -11 -4 -21 -10 -21
-5 0 -10 7 -10 15 0 28 -30 29 -59 1 -33 -32 -42 -26 -30 20 15 51 -3 70 -35
38 -9 -8 -16 -30 -16 -49 0 -30 -3 -33 -37 -37 -21 -3 -40 -4 -42 -2 -2 2 -5
37 -8 79 -4 73 -3 75 22 85 27 10 32 29 14 47 -9 9 -8 16 5 28 21 21 10 38
-19 31 -31 -8 -33 -3 -44 194 -6 91 -14 179 -19 195 -4 17 -8 68 -7 115 0 81
1 85 23 88 31 5 25 34 -8 42 -23 5 -26 12 -32 75 -3 39 -14 129 -23 200 -9 72
-19 163 -22 203 l-5 73 28 -3 c24 -2 30 1 32 21 3 21 1 23 -27 19 -31 -5 -41
5 -41 43 0 21 21 25 51 8 17 -9 25 -6 44 15 27 29 53 34 61 11z m1444 -25 c0
-10 -5 -22 -11 -25 -6 -4 -8 -22 -4 -44 5 -30 2 -41 -14 -56 -25 -21 -27 -53
-6 -62 9 -3 24 2 34 11 16 15 21 15 47 1 16 -8 35 -15 42 -15 7 0 18 -11 24
-25 8 -18 19 -25 39 -25 35 0 55 -30 39 -60 -14 -26 -5 -40 25 -40 20 0 30
-13 65 -86 22 -48 40 -91 40 -95 0 -12 -47 -11 -55 1 -3 6 -33 10 -66 10 -56
0 -59 -1 -59 -25 0 -17 -9 -29 -30 -40 -16 -9 -30 -21 -30 -27 0 -6 -11 -21
-25 -34 -30 -28 -32 -44 -5 -51 14 -4 19 -11 15 -24 -13 -41 -12 -128 1 -133
17 -7 19 -59 2 -54 -13 5 -20 17 -41 73 -40 109 -71 223 -68 253 2 22 -2 34
-13 38 -21 8 -20 20 4 44 25 25 16 44 -17 37 -25 -5 -30 2 -48 63 -6 23 -5 23
25 -8 29 -30 34 -32 48 -18 13 12 13 20 4 41 -9 20 -9 25 3 25 15 0 45 27 45
41 0 5 -11 11 -25 15 -18 4 -25 13 -25 30 0 13 -2 24 -4 24 -2 0 -11 3 -19 6
-11 4 -23 -9 -40 -46 -23 -48 -26 -51 -36 -32 -9 16 -7 29 6 56 10 20 23 36
30 36 9 0 33 49 33 66 0 9 -37 3 -47 -7 -9 -9 -11 -7 -7 8 4 14 -2 26 -18 37
-19 14 -21 18 -8 26 8 6 26 8 38 5 34 -8 62 3 62 26 0 31 28 91 40 84 5 -3 10
-15 10 -25z m-445 -96 c16 -38 13 -54 -10 -54 -8 0 -17 -5 -20 -10 -9 -14 13
-40 34 -40 11 0 23 -18 35 -52 10 -29 26 -60 36 -68 22 -18 120 -275 150 -393
12 -45 25 -98 30 -118 13 -49 13 -49 -15 -49 -29 0 -30 3 -9 35 15 22 14 25
-8 39 -13 9 -46 17 -74 18 -46 3 -49 2 -49 -22 0 -21 5 -26 33 -28 20 -2 32
-9 32 -18 0 -11 -10 -13 -42 -10 -24 3 -47 5 -51 5 -4 1 -7 9 -5 19 4 22 -49
31 -58 8 -8 -20 36 -78 54 -71 21 8 50 -12 54 -37 2 -16 11 -24 30 -26 36 -4
27 -27 -19 -48 -28 -14 -39 -15 -60 -5 -17 8 -30 8 -36 2 -13 -13 0 -31 22
-31 10 0 24 -7 31 -15 17 -20 47 -19 59 2 5 10 21 17 37 18 22 0 32 7 43 30
14 30 47 60 65 60 21 0 15 -22 -9 -35 -14 -7 -25 -21 -25 -30 0 -9 -25 -34
-54 -56 -62 -44 -86 -84 -86 -142 0 -72 -22 -98 -34 -40 -3 18 -20 45 -36 60
-17 15 -30 37 -30 49 l0 22 23 -21 c33 -31 55 -15 37 27 -17 41 -27 47 -51 25
-18 -17 -19 -16 -19 14 0 17 -4 34 -10 37 -17 11 -11 32 11 38 18 5 20 10 13
54 -8 61 -11 64 -38 57 -28 -7 -35 9 -77 163 -51 191 -51 191 -33 217 15 23
14 25 -15 47 -36 27 -38 38 -11 62 19 16 19 19 5 47 -10 20 -12 31 -4 36 6 4
8 20 4 40 -4 23 -1 41 10 56 8 13 15 32 15 44 0 29 27 51 42 36 22 -22 41 -14
36 13 -3 14 -1 28 3 31 5 3 9 14 9 25 0 31 18 22 35 -17z m-1171 -46 c12 -84
26 -271 21 -276 -3 -3 -13 2 -22 10 -10 9 -29 18 -43 20 -19 2 -26 10 -28 31
-3 23 2 30 33 43 43 18 41 38 -3 42 -37 4 -44 29 -9 34 30 4 28 31 -3 38 -24
6 -37 31 -39 78 -1 20 4 22 43 22 l44 0 6 -42z m1887 2 c30 -55 114 -231 124
-261 8 -20 29 -60 49 -88 42 -59 42 -62 18 -84 -20 -18 -34 -13 -25 8 2 8 -8
33 -24 57 -16 24 -36 59 -43 78 -8 19 -42 90 -77 158 -35 68 -63 130 -63 138
0 19 30 15 41 -6z m-5475 -10 c30 0 31 -18 3 -73 -57 -113 -225 -377 -240
-377 -5 0 -23 13 -41 29 -25 22 -30 32 -22 42 6 8 35 59 64 114 29 55 57 106
63 113 5 7 17 27 27 45 13 24 25 32 46 33 51 2 54 4 54 23 0 10 -9 21 -20 24
-11 3 -20 13 -20 22 0 14 6 16 31 11 17 -3 42 -6 55 -6z m4985 -71 c10 -24 43
-125 75 -224 32 -99 66 -200 77 -225 21 -51 58 -192 52 -199 -3 -2 -11 1 -18
7 -7 6 -26 10 -41 9 -27 -2 -29 2 -61 93 -18 52 -54 151 -79 220 -134 371
-129 350 -93 350 12 0 29 5 37 10 23 15 33 7 51 -41z m-2265 -266 c-3 -38 -10
-61 -22 -70 -21 -15 -11 -43 15 -43 23 0 66 66 62 98 -2 17 3 22 22 22 33 0
40 -10 20 -32 -15 -17 -15 -19 0 -36 23 -25 21 -30 -10 -34 -38 -4 -40 -49 -3
-58 34 -8 40 -40 8 -40 -28 0 -68 -26 -68 -44 0 -8 -13 -16 -29 -19 -34 -7
-48 -35 -27 -56 14 -13 18 -13 39 7 l23 21 27 -34 c15 -19 34 -35 42 -35 8 0
15 -5 15 -11 0 -15 -80 -1 -101 18 -11 9 -26 12 -43 7 -20 -5 -26 -2 -26 10 0
8 -9 20 -20 26 -26 14 -26 40 0 40 12 0 26 12 35 30 9 17 27 36 40 42 14 6 25
17 25 25 0 19 -29 28 -43 14 -6 -6 -19 -11 -30 -11 -14 0 -18 6 -15 26 3 27
-2 32 -54 53 -32 12 -39 57 -12 68 16 6 23 0 50 -44 17 -26 32 -7 36 44 4 41
21 73 40 73 5 0 7 -25 4 -57z m-2312 -69 c-1 -17 -22 -74 -47 -125 -25 -52
-53 -112 -62 -133 -15 -38 -16 -39 -35 -21 -28 25 -26 39 20 149 22 53 40 100
40 105 0 5 4 22 10 36 8 22 15 26 42 23 30 -3 33 -6 32 -34z m4180 -21 c3 -10
21 -80 41 -156 19 -76 40 -147 45 -157 6 -10 10 -32 10 -48 0 -15 7 -50 16
-75 20 -58 14 -77 -25 -77 -32 0 -38 11 -60 115 -12 55 -27 116 -67 274 l-26
104 23 18 c30 23 36 23 43 2z m-1324 -38 c19 -2 42 1 52 6 11 6 19 5 23 -2 4
-5 18 -14 31 -19 13 -5 24 -14 24 -20 0 -11 -36 -21 -65 -17 -12 1 -20 -4 -20
-13 0 -9 9 -15 25 -15 18 0 26 -6 28 -23 3 -20 7 -21 41 -16 22 3 41 2 45 -4
10 -16 -22 -35 -48 -28 -24 6 -24 4 -24 -49 1 -47 3 -55 20 -55 16 0 18 -5 13
-33 -5 -25 -2 -37 14 -51 25 -23 27 -49 5 -67 -10 -8 -13 -21 -9 -36 3 -15 1
-25 -9 -29 -31 -12 -29 -64 2 -64 12 0 13 -3 4 -12 -8 -8 -15 -8 -26 1 -24 20
-60 10 -64 -17 -3 -20 0 -23 21 -20 31 4 57 -18 57 -48 0 -19 5 -24 25 -24 19
0 25 -5 25 -23 0 -13 -7 -32 -15 -43 -21 -27 -18 -67 5 -87 19 -16 20 -25 14
-80 -4 -34 -11 -70 -15 -79 -5 -9 -9 -25 -9 -35 0 -10 -9 -24 -20 -31 -11 -7
-20 -18 -20 -26 0 -7 -7 -19 -15 -26 -20 -17 -4 -36 36 -45 34 -8 34 -8 13
-40 -20 -31 -11 -57 18 -55 40 4 48 0 48 -18 0 -10 5 -23 12 -30 20 -20 -10
-15 -46 8 -30 18 -36 18 -96 5 -36 -8 -76 -17 -90 -21 l-25 -8 28 34 c15 18
26 39 23 46 -8 20 12 17 37 -6 26 -25 51 -22 55 6 2 14 -5 24 -23 32 -14 6
-25 18 -25 26 0 7 -9 16 -21 19 -20 5 -20 7 -4 31 14 21 15 29 5 41 -14 16 -6
21 40 27 31 4 39 34 11 43 -30 9 -26 22 9 29 27 5 30 10 30 41 0 31 -3 35 -25
35 -17 0 -29 -9 -39 -29 -9 -16 -22 -31 -31 -34 -8 -4 -15 -15 -15 -25 0 -27
-51 -61 -83 -55 -23 4 -27 2 -27 -16 0 -13 10 -26 24 -33 14 -6 26 -20 28 -32
2 -13 12 -22 26 -24 26 -4 20 -22 -9 -22 -14 0 -19 -7 -19 -29 0 -45 -18 -47
-26 -4 -12 66 -31 95 -62 91 -23 -3 -27 -8 -26 -33 1 -30 -13 -48 -28 -39 -4
3 -8 24 -8 47 0 38 3 44 30 54 23 8 30 18 30 37 0 16 9 31 25 42 28 18 42 51
26 67 -14 14 -79 -36 -83 -65 -2 -12 -9 -23 -15 -26 -10 -3 -13 12 -13 53 0
53 1 55 20 45 25 -13 60 -4 60 15 0 19 -33 36 -62 32 -32 -3 -30 27 2 31 59 9
58 52 -1 52 l-29 0 0 93 c0 50 -3 136 -7 190 l-6 97 27 0 c22 0 30 7 42 36 14
33 14 38 0 52 -12 13 -18 13 -30 2 -9 -7 -16 -21 -16 -31 0 -11 -4 -19 -10
-19 -5 0 -10 18 -10 40 0 38 2 40 24 34 18 -4 28 1 45 24 26 37 26 38 1 69
-28 36 -25 51 13 61 23 6 33 15 35 31 3 20 0 23 -21 19 -22 -4 -24 -3 -14 14
7 10 23 18 38 18 37 0 46 28 14 40 -32 12 -34 35 -2 26 12 -4 38 -8 57 -11z
m-663 -33 c-2 -21 3 -28 21 -30 29 -4 28 -20 -2 -32 -33 -12 -44 -49 -20 -67
17 -12 17 -15 1 -48 -23 -49 -22 -65 7 -65 14 0 28 -4 31 -10 3 -5 15 -10 25
-10 15 0 19 -9 22 -42 3 -39 6 -43 31 -46 17 -2 29 2 33 12 6 15 -24 76 -38
76 -4 0 -8 5 -8 10 0 19 40 -10 50 -36 10 -25 34 -32 46 -13 4 7 10 7 16 1 14
-14 1 -32 -22 -32 -26 0 -33 -15 -19 -41 9 -17 17 -20 45 -16 25 4 34 2 34 -8
0 -8 -4 -17 -10 -20 -15 -9 -12 -42 5 -49 10 -3 15 -19 15 -48 0 -24 6 -61 14
-83 13 -40 30 -357 31 -577 0 -97 -2 -108 -18 -108 -10 0 -22 11 -26 24 -10
24 -29 36 -59 36 -10 0 -23 9 -30 20 -14 24 -41 26 -47 5 -3 -8 -7 -22 -10
-30 -4 -13 -9 -12 -34 6 -25 18 -33 20 -46 9 -30 -25 -12 -50 37 -50 17 0 18
-3 8 -15 -18 -22 -38 -19 -64 10 -27 29 -48 32 -66 10 -10 -13 -9 -19 5 -35
18 -20 18 -20 -12 -14 -51 10 -102 -36 -58 -52 8 -4 15 -12 15 -20 0 -17 -37
-38 -45 -24 -10 16 -7 335 5 464 21 235 42 390 58 414 12 18 13 28 3 48 -13
30 -7 44 19 44 10 0 27 15 39 35 14 25 27 35 44 35 14 0 31 7 38 16 11 14 10
18 -6 31 -28 19 -69 13 -73 -12 -4 -19 -39 -54 -55 -55 -5 0 -7 19 -5 42 3 38
6 43 28 43 33 0 40 32 8 37 -16 2 -23 9 -22 23 3 41 26 250 30 262 6 24 33 2
31 -25z m-2005 -131 c18 -21 41 -41 52 -44 15 -6 17 -14 11 -45 -4 -20 -13
-44 -21 -53 -8 -8 -14 -23 -14 -31 0 -9 -12 -23 -26 -33 -20 -13 -24 -22 -20
-41 5 -20 3 -24 -14 -24 -11 0 -23 -8 -26 -17 -3 -10 -12 -31 -18 -46 -11 -23
-15 -25 -25 -13 -8 10 -9 16 -1 21 5 3 10 15 10 26 0 24 -28 25 -45 2 -12 -16
-17 -16 -52 -3 -21 8 -66 13 -100 13 -35 -1 -63 2 -63 6 0 4 7 28 16 54 11 32
21 47 34 47 9 0 29 9 44 21 24 19 27 19 48 5 26 -19 74 -21 84 -5 4 7 -7 22
-25 36 -17 13 -31 27 -31 31 0 4 16 18 36 31 32 22 35 28 29 60 l-6 36 45 2
c41 1 49 -2 78 -36z m1003 -117 c0 -33 4 -40 23 -42 18 -3 21 -8 16 -27 -9
-34 2 -46 31 -35 22 9 25 7 25 -16 0 -13 7 -27 15 -30 22 -9 18 -22 -7 -26
-15 -2 -23 -10 -23 -22 0 -29 22 -31 47 -4 30 31 73 49 85 37 5 -5 7 -23 5
-39 -4 -26 -8 -30 -31 -28 -20 2 -26 -1 -26 -17 0 -13 8 -21 23 -23 29 -4 39
-27 21 -49 -8 -9 -14 -32 -15 -52 -1 -20 -8 -99 -17 -176 -9 -77 -21 -198 -27
-270 -7 -72 -14 -133 -17 -138 -2 -4 -13 -2 -24 4 -16 8 -19 17 -15 35 8 29
-18 84 -39 84 -8 0 -17 -11 -21 -25 -4 -15 -13 -25 -24 -25 -11 0 -22 -4 -25
-10 -9 -14 -25 -12 -25 3 0 7 9 18 20 25 11 7 20 21 20 32 0 11 6 20 14 20 7
0 19 6 25 14 9 11 8 18 -4 30 -22 22 -30 20 -49 -9 -9 -14 -21 -23 -27 -20 -5
4 -27 -12 -49 -35 -22 -23 -44 -39 -50 -35 -16 10 17 51 55 70 38 17 62 50 45
60 -10 6 -98 0 -147 -11 -25 -5 -30 -32 -10 -53 13 -14 7 -13 -35 8 -38 19
-58 8 -58 -32 0 -19 -7 -40 -15 -47 -22 -18 -28 -6 -17 32 6 18 18 71 26 118
37 210 106 440 144 478 15 15 20 31 18 54 -2 18 -1 23 1 11 5 -25 23 -29 54
-13 20 11 26 40 8 40 -6 0 -9 10 -7 23 3 19 8 22 41 19 31 -3 37 -1 37 17 0
11 -9 22 -19 26 -25 7 -35 38 -22 62 5 10 12 26 15 36 10 32 31 12 31 -29z
m-404 -113 c20 -19 20 -20 4 -55 -17 -36 -16 -45 7 -79 11 -15 10 -20 -4 -31
-24 -18 -23 -47 2 -53 24 -6 24 -9 3 -82 -13 -44 -24 -62 -46 -75 -40 -23 -47
-20 -41 14 5 25 1 35 -27 61 -45 42 -128 79 -179 79 -26 0 -43 5 -46 14 -7 18
21 72 41 79 16 7 21 47 5 47 -5 0 -10 5 -10 10 0 6 15 10 33 10 17 0 41 7 51
15 11 8 29 15 39 15 11 0 34 9 53 20 l33 21 13 -28 c15 -33 55 -43 65 -17 4
10 0 22 -10 29 -17 12 -22 25 -12 25 3 0 15 -9 26 -19z m-401 -41 c0 -22 -42
-190 -59 -232 -12 -32 -45 -38 -60 -10 -9 17 2 82 32 197 13 50 18 54 80 64 4
0 7 -8 7 -19z m3373 -2 c39 -186 58 -281 54 -284 -2 -3 -17 1 -31 8 -21 9 -32
9 -47 0 -26 -16 -26 -16 -38 21 -22 67 -33 188 -20 221 22 56 72 77 82 34z
m-2174 -84 l32 -7 -6 -66 c-3 -36 -14 -100 -25 -141 -10 -41 -24 -104 -30
-140 -7 -36 -16 -83 -21 -105 -5 -22 -16 -83 -25 -135 -24 -152 -18 -140 -69
-140 -24 0 -46 4 -49 9 -3 5 3 58 15 117 11 60 27 150 34 199 39 246 52 285
101 307 32 15 29 52 -3 56 -25 4 -30 21 -11 40 14 14 15 14 57 6z m-619 -42
c0 -10 -14 -60 -31 -112 -17 -52 -34 -122 -39 -155 -12 -85 -50 -217 -67 -235
-13 -13 -16 -13 -28 3 -11 16 -11 24 0 51 8 18 19 60 25 92 12 74 23 119 49
214 11 41 21 87 21 102 0 17 10 34 26 47 29 22 44 20 44 -7z m-524 -164 c4 -6
7 -30 6 -54 l0 -42 58 5 c37 4 60 2 64 -6 11 -17 37 -13 60 8 19 17 24 18 46
6 25 -14 25 -14 2 -15 -12 0 -25 -7 -28 -15 -4 -8 -12 -15 -20 -15 -7 0 -19
-9 -27 -20 -13 -19 -14 -19 -73 10 -32 17 -66 30 -75 30 -9 0 -24 18 -34 40
-21 46 -36 50 -63 15 -24 -30 -32 -31 -32 -5 0 45 95 93 116 58z m2768 -3 c11
-8 30 -15 43 -15 16 0 23 -6 23 -19 0 -16 -8 -20 -42 -23 -40 -3 -41 -4 -24
-20 10 -10 28 -18 41 -18 24 0 38 -20 27 -36 -4 -5 -19 -17 -34 -27 -41 -26
-37 -50 7 -41 28 5 35 3 35 -10 0 -8 -13 -22 -30 -31 -18 -9 -30 -23 -30 -35
0 -24 22 -26 40 -5 20 24 28 18 35 -24 7 -45 -3 -111 -17 -111 -6 0 -8 6 -5
14 8 21 -14 36 -49 33 -27 -2 -29 0 -30 38 0 22 -3 60 -7 85 -10 76 -17 260
-9 260 4 0 16 -7 26 -15z m-573 -42 c4 -4 9 -114 11 -243 l3 -235 -39 0 -39 0
-3 70 c-9 190 -13 245 -19 306 -4 37 -5 79 -1 94 6 25 10 27 43 22 20 -4 40
-10 44 -14z m905 -178 c8 -20 63 -19 86 2 20 18 23 17 32 -14 6 -19 2 -25 -18
-33 -14 -5 -26 -14 -26 -19 0 -17 21 -23 36 -10 13 10 17 10 25 -2 12 -20 11
-49 -2 -49 -7 0 -29 5 -49 11 -34 10 -45 8 -109 -21 -39 -18 -77 -43 -86 -56
-8 -13 -22 -24 -31 -24 -19 0 -29 27 -16 43 6 7 9 22 6 33 -3 13 2 22 18 29
29 13 30 29 1 33 -26 4 -32 22 -7 22 8 0 29 13 45 29 25 26 39 32 82 40 4 0
10 -6 13 -14z"/>
<path d="M6210 7377 c0 -8 32 -46 72 -85 l72 -71 -12 -47 c-14 -50 -6 -71 22
-61 15 6 36 65 36 104 0 29 -38 72 -111 128 -64 47 -79 53 -79 32z"/>
<path d="M5971 7071 c-6 -11 -11 -33 -11 -50 0 -38 -31 -109 -63 -143 -13 -14
-43 -32 -66 -39 -46 -14 -50 -36 -5 -30 104 12 200 128 192 232 -3 49 -29 65
-47 30z"/>
<path d="M6317 6920 c-9 -108 -51 -176 -131 -214 -41 -19 -47 -36 -13 -36 24
0 79 30 115 64 55 49 94 173 73 229 -19 50 -38 33 -44 -43z"/>
<path d="M2094 6969 c-25 -53 -28 -72 -29 -152 0 -69 4 -100 17 -122 17 -30
29 -54 48 -97 5 -13 19 -35 31 -49 17 -22 22 -45 27 -118 6 -109 26 -125 36
-30 7 68 -13 154 -45 201 -11 14 -19 30 -19 35 0 4 -14 28 -30 53 -28 42 -30
52 -30 135 0 61 5 97 14 110 18 26 29 82 18 89 -5 3 -22 -22 -38 -55z"/>
<path d="M5672 6718 c-12 -6 -25 -21 -28 -33 -6 -24 -109 -82 -159 -90 -119
-18 -130 -21 -130 -35 0 -9 11 -16 26 -18 66 -8 269 69 289 110 7 13 24 35 38
51 23 24 24 27 6 26 -10 0 -29 -5 -42 -11z"/>
<path d="M5938 6511 c-39 -46 -156 -104 -243 -121 -82 -16 -111 -28 -98 -41
15 -15 200 24 250 51 87 48 113 68 138 103 30 45 30 47 6 47 -11 0 -34 -17
-53 -39z"/>
</g>
</svg>
